<?xml version="1.0" encoding="UTF-8"?>
<svg width="183px" height="159px" viewBox="0 0 183 159" version="1.1" xmlns="http://www.w3.org/2000/svg" xmlns:xlink="http://www.w3.org/1999/xlink">
    <!-- Generator: Sketch 51.2 (57519) - http://www.bohemiancoding.com/sketch -->
    <title>category-salud</title>
    <desc>Created with Sketch.</desc>
    <defs>
        <polygon id="path-1" points="0.000112963385 0.004 104.11863 0.004 104.11863 82.180342 0.000112963385 82.180342"></polygon>
        <polygon id="path-3" points="0.30233461 0.004 104.421 0.004 104.421 82.1806071 0.30233461 82.1806071"></polygon>
        <polygon id="path-5" points="0.389016396 0.9781 132.032098 0.9781 132.032098 61 0.389016396 61"></polygon>
    </defs>
    <g id="Page-1" stroke="none" stroke-width="1" fill="none" fill-rule="evenodd">
        <g id="Categories" transform="translate(-4.000000, -16.000000)">
            <g id="category-salud" transform="translate(4.000000, 15.000000)">
                <g id="Group-3" transform="translate(0.000000, 0.996000)">
                    <mask id="mask-2" fill="white">
                        <use xlink:href="#path-1"></use>
                    </mask>
                    <g id="Clip-2"></g>
                    <path d="M96.4463,80.6553 C100.3363,78.5273 102.7173,74.6093 102.8163,70.1773 L102.8223,69.9133 C102.9213,65.5573 100.6723,61.4413 96.9523,59.1723 L72.1243,44.0133 C70.9083,43.2693 70.2653,41.9603 70.2363,40.5503 C70.2693,39.1243 71.0383,37.8643 72.2893,37.1803 L97.7323,23.2803 C101.5673,21.1843 104.0123,17.1673 104.1103,12.7973 L104.1153,12.5603 C104.2163,8.1273 102.0143,4.1073 98.2243,1.8053 C94.4343,-0.4967 89.8503,-0.5987 85.9623,1.5333 L38.3763,27.6293 L37.9133,27.6273 L12.5373,27.0543 C5.7783,26.9023 0.1553,32.2773 0.0033,39.0353 C-0.1497,45.7943 5.2253,51.4173 11.9843,51.5703 L37.7963,52.1523 L38.1973,52.3883 L84.1843,80.3743 C87.9723,82.6783 92.5563,82.7843 96.4463,80.6553" id="Fill-1" fill="#FFFFFF" mask="url(#mask-2)"></path>
                </g>
                <g id="Group-6" transform="translate(78.000000, 0.996000)">
                    <mask id="mask-4" fill="white">
                        <use xlink:href="#path-3"></use>
                    </mask>
                    <g id="Clip-5"></g>
                    <path d="M7.9756,1.5289 C4.0856,3.6569 1.7046,7.5749 1.6046,12.0069 L1.5996,12.2709 C1.5006,16.6269 3.7496,20.7429 7.4696,23.0119 L32.2976,38.1709 C33.5136,38.9139 34.1556,40.2239 34.1856,41.6339 C34.1516,43.0599 33.3836,44.3199 32.1316,45.0039 L6.6896,58.9039 C2.8536,60.9999 0.4096,65.0169 0.3106,69.3869 L0.3056,69.6239 C0.2056,74.0569 2.4076,78.0769 6.1976,80.3789 C9.9876,82.6809 14.5716,82.7829 18.4596,80.6509 L66.0456,54.5549 L66.5086,54.5569 L91.8846,55.1299 C98.6436,55.2819 104.2656,49.9069 104.4186,43.1489 C104.5706,36.3899 99.1966,30.7669 92.4366,30.6139 L66.6256,30.0319 L66.2246,29.7959 L20.2376,1.8099 C16.4496,-0.4941 11.8656,-0.6001 7.9756,1.5289" id="Fill-4" fill="#FFFFFF" mask="url(#mask-4)"></path>
                </g>
                <g id="Group-9" transform="translate(25.000000, 98.996000)">
                    <mask id="mask-6" fill="white">
                        <use xlink:href="#path-5"></use>
                    </mask>
                    <g id="Clip-8"></g>
                    <path d="M129.9433,7.1651 C127.4713,3.2901 123.2563,0.9781 118.6713,0.9781 C113.5473,0.9781 108.7963,4.0261 106.5663,8.7451 C99.1683,24.3871 83.2793,34.4941 66.0883,34.4941 C49.0493,34.4941 33.2693,24.3901 25.8853,8.7541 C23.6543,4.0301 18.9023,0.9781 13.7493,0.9781 C9.1693,0.9781 4.9583,3.2861 2.4853,7.1531 C0.0443,10.9671 -0.2847,15.6861 1.6023,19.7751 C13.1683,44.8181 38.5003,61.0001 66.1373,61.0001 C93.8003,61.0001 119.1843,44.8271 130.8073,19.7981 C132.7053,15.7081 132.3823,10.9861 129.9433,7.1651" id="Fill-7" fill="#FFFFFF" mask="url(#mask-6)"></path>
                </g>
            </g>
        </g>
    </g>
</svg>