<?xml version="1.0" encoding="UTF-8"?>
<svg width="169px" height="162px" viewBox="0 0 169 162" version="1.1" xmlns="http://www.w3.org/2000/svg" xmlns:xlink="http://www.w3.org/1999/xlink">
    <!-- Generator: Sketch 51.2 (57519) - http://www.bohemiancoding.com/sketch -->
    <title>category-mascotas</title>
    <desc>Created with Sketch.</desc>
    <defs>
        <polygon id="path-1" points="0.590274409 0.988100542 77.9468912 0.988100542 77.9468912 99 0.590274409 99"></polygon>
        <polygon id="path-3" points="0 0.988100542 77.3567326 0.988100542 77.3567326 99 0 99"></polygon>
    </defs>
    <g id="Page-1" stroke="none" stroke-width="1" fill="none" fill-rule="evenodd">
        <g id="Categories" transform="translate(-11.000000, -14.000000)">
            <g id="category-mascotas" transform="translate(11.000000, 14.000000)">
                <g id="Group-3" transform="translate(91.000000, 62.142000)">
                    <mask id="mask-2" fill="white">
                        <use xlink:href="#path-1"></use>
                    </mask>
                    <g id="Clip-2"></g>
                    <path d="M2.026,91.7771 C4.029,95.4391 7.717,97.6801 11.889,97.7741 L12.138,97.7791 C16.238,97.8721 20.113,95.7561 22.249,92.2541 L36.518,68.8821 C37.218,67.7371 38.451,67.1321 39.779,67.1041 C41.121,67.1361 42.307,67.8591 42.95,69.0371 L56.036,92.9871 C58.008,96.5981 61.79,98.8991 65.904,98.9921 L66.127,98.9971 C70.299,99.0911 74.084,97.0181 76.251,93.4511 C78.418,89.8831 78.514,85.5681 76.506,81.9071 L51.942,37.1131 L51.944,36.6771 L52.483,12.7901 C52.626,6.4271 47.567,1.1341 41.205,0.9911 C34.842,0.8471 29.549,5.9061 29.405,12.2691 L28.858,36.5671 L28.635,36.9441 L2.291,80.2341 C0.121,83.8001 0.022,88.1151 2.026,91.7771" id="Fill-1" fill="#FFFFFF" mask="url(#mask-2)"></path>
                </g>
                <g id="Group-6" transform="translate(0.000000, 62.142000)">
                    <mask id="mask-4" fill="white">
                        <use xlink:href="#path-3"></use>
                    </mask>
                    <g id="Clip-5"></g>
                    <path d="M1.4357,91.7771 C3.4397,95.4391 7.1267,97.6801 11.2987,97.7741 L11.5477,97.7791 C15.6477,97.8721 19.5227,95.7561 21.6587,92.2541 L35.9287,68.8821 C36.6287,67.7371 37.8607,67.1321 39.1887,67.1041 C40.5307,67.1361 41.7167,67.8591 42.3597,69.0371 L55.4457,92.9871 C57.4187,96.5981 61.2007,98.8991 65.3137,98.9921 L65.5367,98.9971 C69.7087,99.0911 73.4937,97.0181 75.6607,93.4511 C77.8277,89.8831 77.9237,85.5681 75.9167,81.9071 L51.3517,37.1131 L51.3537,36.6771 L51.8927,12.7901 C52.0357,6.4271 46.9767,1.1341 40.6147,0.9911 C34.2517,0.8471 28.9587,5.9061 28.8147,12.2691 L28.2677,36.5671 L28.0447,36.9441 L1.7007,80.2341 C-0.4693,83.8001 -0.5683,88.1151 1.4357,91.7771" id="Fill-4" fill="#FFFFFF" mask="url(#mask-4)"></path>
                </g>
                <path d="M27.818,50.6774 C30.145,54.3254 34.112,56.5024 38.429,56.5024 C43.252,56.5024 47.725,53.6334 49.824,49.1904 C56.788,34.4664 71.745,24.9514 87.927,24.9514 C103.967,24.9514 118.822,34.4634 125.773,49.1824 C127.872,53.6284 132.346,56.5024 137.196,56.5024 C141.508,56.5024 145.472,54.3294 147.801,50.6884 C150.098,47.0984 150.408,42.6564 148.631,38.8074 C137.744,15.2324 113.898,0.0004 87.882,0.0004 C61.841,0.0004 37.945,15.2244 27.005,38.7854 C25.218,42.6354 25.522,47.0804 27.818,50.6774" id="Fill-7" fill="#FFFFFF"></path>
            </g>
        </g>
    </g>
</svg>