<?xml version="1.0" encoding="UTF-8"?>
<svg width="190px" height="190px" viewBox="0 0 190 190" version="1.1" xmlns="http://www.w3.org/2000/svg" xmlns:xlink="http://www.w3.org/1999/xlink">
    <!-- Generator: Sketch 51.2 (57519) - http://www.bohemiancoding.com/sketch -->
    <title>category-promos</title>
    <desc>Created with Sketch.</desc>
    <defs>
        <linearGradient x1="50%" y1="-11.4682638%" x2="50%" y2="136.974165%" id="linearGradient-1">
            <stop stop-color="#7B2AFF" offset="0%"></stop>
            <stop stop-color="#AC26ED" offset="25%"></stop>
            <stop stop-color="#E71778" offset="100%"></stop>
        </linearGradient>
        <polygon id="path-2" points="0.639921691 0.202215795 62.6085802 0.202215795 62.6085802 62.2536543 0.639921691 62.2536543"></polygon>
        <polygon id="path-4" points="0 0.202215795 61.8179235 0.202215795 61.8179235 62.2536543 0 62.2536543"></polygon>
    </defs>
    <g id="Page-1" stroke="none" stroke-width="1" fill="none" fill-rule="evenodd">
        <g id="Categories">
            <g id="category-promos" transform="translate(-47.000000, -5.000000)">
                <rect id="category-promos__bg" fill="url(#linearGradient-1)" fill-rule="nonzero" transform="translate(141.580000, 100.085000) rotate(-90.000000) translate(-141.580000, -100.085000) " x="42" y="-41" width="199.16" height="282.17"></rect>
                <g id="category-promos__face" transform="translate(83.000000, 46.000000)">
                    <g id="Group-3" transform="translate(57.103448, 0.000000)">
                        <mask id="mask-3" fill="white">
                            <use xlink:href="#path-2"></use>
                        </mask>
                        <g id="Clip-2"></g>
                        <path d="M31.5829962,16.4189758 C23.4747515,16.4189758 16.8564111,23.0373161 16.8564111,31.2287466 C16.8564111,39.336315 23.4747515,46.0371648 31.5829962,46.0371648 C39.7737504,46.0371648 46.3927671,39.336315 46.3927671,31.2287466 C46.3927671,23.0373161 39.7737504,16.4189758 31.5829962,16.4189758 M31.5829962,0.201810011 C48.7091186,0.201810011 62.6085802,14.1844574 62.6085802,31.3112561 C62.6085802,48.4373784 48.7091186,62.2536543 31.5829962,62.2536543 C14.4568739,62.2536543 0.639921691,48.4373784 0.639921691,31.3112561 C0.639921691,14.1844574 14.4568739,0.201810011 31.5829962,0.201810011" id="Fill-1" fill="#FFFFFF" mask="url(#mask-3)"></path>
                    </g>
                    <g id="Group-6">
                        <mask id="mask-5" fill="white">
                            <use xlink:href="#path-4"></use>
                        </mask>
                        <g id="Clip-5"></g>
                        <path d="M30.8677736,16.4189758 C22.7792429,16.4189758 16.176994,23.0373161 16.176994,31.2287466 C16.176994,39.336315 22.7792429,46.0371648 30.8677736,46.0371648 C39.0386132,46.0371648 45.6415367,39.336315 45.6415367,31.2287466 C45.6415367,23.0373161 39.0386132,16.4189758 30.8677736,16.4189758 M30.8677736,0.201810011 C47.9522564,0.201810011 61.8179235,14.1844574 61.8179235,31.3112561 C61.8179235,48.4373784 47.9522564,62.2536543 30.8677736,62.2536543 C13.7832909,62.2536543 -6.74662669e-05,48.4373784 -6.74662669e-05,31.3112561 C-6.74662669e-05,14.1844574 13.7832909,0.201810011 30.8677736,0.201810011" id="Fill-4" fill="#FFFFFF" mask="url(#mask-5)"></path>
                    </g>
                    <path d="M98.7985555,76.836958 C97.2134365,74.3262817 94.5111731,72.8275862 91.5704947,72.8275862 C88.2851364,72.8275862 85.2381931,74.80267 83.8083844,77.8606421 C79.0639265,87.9969729 68.8761142,94.5473116 57.8524871,94.5473116 C46.9269507,94.5473116 36.8079381,87.9990382 32.0730168,77.8668379 C30.6432081,74.8054236 27.5955836,72.8275862 24.2911521,72.8275862 C21.3545609,72.8275862 18.654341,74.3228396 17.0678597,76.8293854 C15.5031763,79.3008217 15.2920087,82.3594822 16.5024756,85.0085314 C23.9185436,101.238089 40.1620962,111.724138 57.8838216,111.724138 C75.6225767,111.724138 91.9001886,101.243596 99.3523594,85.0236767 C100.569638,82.3732506 100.362558,79.3132133 98.7985555,76.836958" id="Fill-7" fill="#FFFFFF"></path>
                </g>
            </g>
        </g>
    </g>
</svg>