<?xml version="1.0" encoding="UTF-8"?>
<svg width="190px" height="190px" viewBox="0 0 190 190" version="1.1" xmlns="http://www.w3.org/2000/svg" xmlns:xlink="http://www.w3.org/1999/xlink">
    <!-- Generator: Sketch 51.2 (57519) - http://www.bohemiancoding.com/sketch -->
    <title>category-entretenimiento</title>
    <desc>Created with Sketch.</desc>
    <defs>
        <linearGradient x1="50%" y1="-3.42346812%" x2="50%" y2="140.599639%" id="linearGradient-1">
            <stop stop-color="#2AFFE2" offset="0%"></stop>
            <stop stop-color="#28F6E4" offset="12%"></stop>
            <stop stop-color="#21DEE8" offset="32%"></stop>
            <stop stop-color="#16B7F0" offset="58%"></stop>
            <stop stop-color="#0781FA" offset="87%"></stop>
            <stop stop-color="#0066FF" offset="100%"></stop>
        </linearGradient>
        <polygon id="path-2" points="6.70391061e-05 0.200446927 61.4266592 0.200446927 61.4266592 61.709095 6.70391061e-05 61.709095"></polygon>
        <polygon id="path-4" points="0.139642458 0.200446927 48.6905028 0.200446927 48.6905028 61.7096144 0.139642458 61.7096144"></polygon>
    </defs>
    <g id="Page-1" stroke="none" stroke-width="1" fill="none" fill-rule="evenodd">
        <g id="Categories">
            <g id="category-entretenimiento" transform="translate(-47.000000, -5.000000)">
                <rect id="category-entretenimiento__bg" fill="url(#linearGradient-1)" fill-rule="nonzero" transform="translate(141.580000, 100.085000) rotate(-90.000000) translate(-141.580000, -100.085000) " x="42" y="-41" width="199.16" height="282.17"></rect>
                <g id="category-entretenimiento__face" transform="translate(80.000000, 45.000000)">
                    <path d="M102.647866,77.1109274 C101.087866,74.6660112 98.4284246,73.2065698 95.5343464,73.2065698 C92.3010503,73.2065698 89.3023911,75.1299218 87.8952402,78.1077989 C83.2259665,87.9786369 73.1995978,94.3574078 62.3513296,94.3574078 C51.598257,94.3574078 41.6395978,87.980648 36.9797095,78.1138324 C35.5725587,75.1326034 32.5732291,73.2065698 29.321162,73.2065698 C26.4311061,73.2065698 23.773676,74.6626592 22.2123352,77.1035531 C20.6724469,79.510257 20.4646257,82.4888045 21.6559106,85.0684693 C28.9544581,100.872939 44.9406034,111.084335 62.3814972,111.084335 C79.8391508,111.084335 95.8588156,100.878302 103.192894,85.0832179 C104.390883,82.5022123 104.187084,79.522324 102.647866,77.1109274" id="Fill-1" fill="#FFFFFF"></path>
                    <g id="Group-5" transform="translate(0.000000, 0.469944)">
                        <mask id="mask-3" fill="white">
                            <use xlink:href="#path-2"></use>
                        </mask>
                        <g id="Clip-4"></g>
                        <path d="M30.6724693,16.275352 C22.6351508,16.275352 16.0740335,22.8357989 16.0740335,30.9555754 C16.0740335,38.9922235 22.6351508,45.6344581 30.6724693,45.6344581 C38.7915754,45.6344581 45.3526927,38.9922235 45.3526927,30.9555754 C45.3526927,22.8357989 38.7915754,16.275352 30.6724693,16.275352 M30.6724693,0.200044693 C47.6487821,0.200044693 61.4266592,14.0603799 61.4266592,31.0373631 C61.4266592,48.013676 47.6487821,61.709095 30.6724693,61.709095 C13.695486,61.709095 6.70391061e-05,48.013676 6.70391061e-05,31.0373631 C6.70391061e-05,14.0603799 13.695486,0.200044693 30.6724693,0.200044693" id="Fill-3" fill="#FFFFFF" mask="url(#mask-3)"></path>
                    </g>
                    <g id="Group-8" transform="translate(71.061453, 0.469944)">
                        <mask id="mask-5" fill="white">
                            <use xlink:href="#path-4"></use>
                        </mask>
                        <g id="Clip-7"></g>
                        <path d="M40.5715978,0.200379888 C36.087352,0.200379888 32.4524916,3.83524022 32.4524916,8.31948603 L32.4524916,36.8701006 C32.4524916,41.1619441 29.2252291,44.9322235 24.9427709,45.2077542 C20.2768492,45.507419 16.3778547,41.7907709 16.3778547,37.1878659 L16.3778547,8.31948603 C16.3778547,3.83524022 12.7429944,0.200379888 8.2587486,0.200379888 C3.77450279,0.200379888 0.139642458,3.83524022 0.139642458,8.31948603 L0.139642458,36.8647374 C0.139642458,50.4294302 11.2393073,61.9179218 24.8026592,61.7067486 C37.9932737,61.5009385 48.6907039,50.8350168 48.6907039,37.4338994 L48.6907039,8.31948603 C48.6907039,3.83524022 45.0558436,0.200379888 40.5715978,0.200379888" id="Fill-6" fill="#FFFFFF" mask="url(#mask-5)"></path>
                    </g>
                </g>
            </g>
        </g>
    </g>
</svg>