<?xml version="1.0" encoding="UTF-8"?>
<svg width="190px" height="190px" viewBox="0 0 190 190" version="1.1" xmlns="http://www.w3.org/2000/svg" xmlns:xlink="http://www.w3.org/1999/xlink">
    <!-- Generator: Sketch 51.2 (57519) - http://www.bohemiancoding.com/sketch -->
    <title>category-hogar</title>
    <desc>Created with Sketch.</desc>
    <defs>
        <linearGradient x1="50%" y1="-11.4682638%" x2="50%" y2="136.974165%" id="linearGradient-1">
            <stop stop-color="#7B2AFF" offset="0%"></stop>
            <stop stop-color="#AC26ED" offset="25%"></stop>
            <stop stop-color="#E71778" offset="100%"></stop>
        </linearGradient>
        <polygon id="path-2" points="0.387506556 0.210526316 87.9589569 0.210526316 87.9589569 39.8607719 0.387506556 39.8607719"></polygon>
        <polygon id="path-4" points="0.429222973 0.175994565 51.8096959 0.175994565 51.8096959 65 0.429222973 65"></polygon>
        <polygon id="path-6" points="0 0.175994565 51.2575799 0.175994565 51.2575799 65 0 65"></polygon>
    </defs>
    <g id="Page-1" stroke="none" stroke-width="1" fill="none" fill-rule="evenodd">
        <g id="Categories">
            <g id="category-hogar" transform="translate(-47.000000, -5.000000)">
                <rect id="category-hogar__bg" fill="url(#linearGradient-1)" fill-rule="nonzero" transform="translate(141.580000, 100.085000) rotate(-90.000000) translate(-141.580000, -100.085000) " x="42" y="-41" width="199.16" height="282.17"></rect>
                <g id="category-hogar__face" transform="translate(83.000000, 41.000000)">
                    <g id="Group-3" transform="translate(15.833333, 0.000000)">
                        <mask id="mask-3" fill="white">
                            <use xlink:href="#path-2"></use>
                        </mask>
                        <g id="Clip-2"></g>
                        <path d="M1.776984,35.7730526 C3.42139733,38.3330526 6.224744,39.8607719 9.275424,39.8607719 C12.6836773,39.8607719 15.8445973,37.8474386 17.3278907,34.7295439 C22.249824,24.3969123 32.8187307,17.7197193 44.2547173,17.7197193 C55.588944,17.7197193 66.0864773,24.394807 70.9985173,34.7239298 C72.4818107,37.8439298 75.6434373,39.8607719 79.0714773,39.8607719 C82.1179173,39.8607719 84.919144,38.3358596 86.5649707,35.7807719 C88.188184,33.2614737 88.4072507,30.1442807 87.151504,27.4432281 C79.458024,10.8993684 62.6068507,0.210245614 44.2222107,0.210245614 C25.819904,0.210245614 8.93339733,10.8937544 1.202464,27.4277895 C-0.0603493333,30.1295439 0.154477333,33.2488421 1.776984,35.7730526" id="Fill-1" fill="#FFFFFF" mask="url(#mask-3)"></path>
                    </g>
                    <g id="Group-6" transform="translate(67.500000, 51.666667)">
                        <mask id="mask-5" fill="white">
                            <use xlink:href="#path-4"></use>
                        </mask>
                        <g id="Clip-5"></g>
                        <path d="M43.2174324,0.175994565 L43.216723,0.175994565 C38.4718581,0.175994565 34.6244595,4.00675543 34.6244595,8.73267935 L34.6244595,38.8220272 C34.6244595,43.3451793 31.2098311,47.3186576 26.6778041,47.609038 C21.7399662,47.9248533 17.61375,44.0078967 17.61375,39.1569185 L17.61375,8.73267935 C17.61375,4.00675543 13.7670608,0.175994565 9.02148649,0.175994565 C4.27591216,0.175994565 0.429222973,4.00675543 0.429222973,8.73267935 L0.429222973,38.816375 C0.429222973,53.1121359 12.1757432,65.2197989 26.529527,64.9972446 C40.4888514,64.7803424 51.8096959,53.5395815 51.8096959,39.416212 L51.8096959,8.73267935 C51.8096959,4.00675543 47.9622973,0.175994565 43.2174324,0.175994565" id="Fill-4" fill="#FFFFFF" mask="url(#mask-5)"></path>
                    </g>
                    <g id="Group-9" transform="translate(0.000000, 51.666667)">
                        <mask id="mask-7" fill="white">
                            <use xlink:href="#path-6"></use>
                        </mask>
                        <g id="Clip-8"></g>
                        <path d="M42.6858676,0.175994565 L42.6851598,0.175994565 C37.9516438,0.175994565 34.1134475,4.00675543 34.1134475,8.73267935 L34.1134475,38.8220272 C34.1134475,43.3451793 30.7069863,47.3186576 26.1857991,47.609038 C21.2597717,47.9248533 17.1434247,44.0078967 17.1434247,39.1569185 L17.1434247,8.73267935 C17.1434247,4.00675543 13.3059361,0.175994565 8.57171233,0.175994565 C3.83748858,0.175994565 0,4.00675543 0,8.73267935 L0,38.816375 C0,53.1121359 11.7184247,65.2197989 26.0378767,64.9972446 C39.963105,64.7803424 51.2575799,53.5395815 51.2575799,39.416212 L51.2575799,8.73267935 C51.2575799,4.00675543 47.4193836,0.175994565 42.6858676,0.175994565" id="Fill-7" fill="#FFFFFF" mask="url(#mask-7)"></path>
                    </g>
                </g>
            </g>
        </g>
    </g>
</svg>