<?xml version="1.0" encoding="UTF-8"?>
<svg width="190px" height="190px" viewBox="0 0 190 190" version="1.1" xmlns="http://www.w3.org/2000/svg" xmlns:xlink="http://www.w3.org/1999/xlink">
    <!-- Generator: Sketch 51.2 (57519) - http://www.bohemiancoding.com/sketch -->
    <title>category-salud</title>
    <desc>Created with Sketch.</desc>
    <defs>
        <linearGradient x1="49.9949789%" y1="-13.6584329%" x2="49.9949789%" y2="166.913563%" id="linearGradient-1">
            <stop stop-color="#FFE30A" offset="0%"></stop>
            <stop stop-color="#D4E627" offset="15%"></stop>
            <stop stop-color="#67EC71" offset="47%"></stop>
            <stop stop-color="#28F09B" offset="66%"></stop>
            <stop stop-color="#25CAE0" offset="100%"></stop>
        </linearGradient>
        <polygon id="path-2" points="7.40743511e-05 0.00262295082 68.2745113 0.00262295082 68.2745113 53.8887488 7.40743511e-05 53.8887488"></polygon>
        <polygon id="path-4" points="0.198252203 0.00262295082 68.4727869 0.00262295082 68.4727869 53.8889227 0.198252203 53.8889227"></polygon>
        <polygon id="path-6" points="0.255092719 0.641377049 86.578425 0.641377049 86.578425 40 0.255092719 40"></polygon>
    </defs>
    <g id="Page-1" stroke="none" stroke-width="1" fill="none" fill-rule="evenodd">
        <g id="Categories">
            <g id="category-salud" transform="translate(-47.000000, -5.000000)">
                <rect id="category-salud__bg" fill="url(#linearGradient-1)" fill-rule="nonzero" transform="translate(141.580000, 100.085000) rotate(-90.000000) translate(-141.580000, -100.085000) " x="42" y="-41" width="199.16" height="282.17"></rect>
                <g id="category-salud__face" transform="translate(82.000000, 52.000000)">
                    <g id="Group-3" transform="translate(0.000000, 0.653115)">
                        <mask id="mask-3" fill="white">
                            <use xlink:href="#path-2"></use>
                        </mask>
                        <g id="Clip-2"></g>
                        <path d="M63.2434754,52.8887213 C65.7942951,51.4933115 67.3556066,48.9241311 67.4205246,46.0179016 L67.424459,45.8447869 C67.489377,42.9883934 66.014623,40.289377 63.5752787,38.8015082 L47.294623,28.8611803 C46.4972459,28.3733115 46.0756066,27.5149508 46.0565902,26.5903607 C46.0782295,25.6552787 46.5824918,24.8290492 47.4028197,24.3805246 L64.0867541,15.2657705 C66.6015082,13.8913443 68.2047869,11.2572459 68.2690492,8.39167213 L68.2723279,8.2362623 C68.3385574,5.32937705 66.894623,2.69331148 64.409377,1.18380328 C61.9241311,-0.325704918 58.9182295,-0.392590164 56.3687213,1.00544262 L25.1647869,18.1175738 L24.8611803,18.1162623 L8.22118033,17.7405246 C3.78904918,17.6408525 0.101836066,21.1654426 0.00216393443,25.596918 C-0.0981639344,30.0290492 3.42642623,33.7162623 7.85855738,33.8165902 L24.784459,34.1982295 L25.0474098,34.3529836 L55.2028197,52.704459 C57.6867541,54.2152787 60.6926557,54.2847869 63.2434754,52.8887213" id="Fill-1" fill="#FFFFFF" mask="url(#mask-3)"></path>
                    </g>
                    <g id="Group-6" transform="translate(51.147541, 0.653115)">
                        <mask id="mask-5" fill="white">
                            <use xlink:href="#path-4"></use>
                        </mask>
                        <g id="Clip-5"></g>
                        <path d="M5.22990164,1.00255738 C2.67908197,2.39796721 1.11777049,4.96714754 1.05219672,7.87337705 L1.04891803,8.0464918 C0.984,10.9028852 2.4587541,13.6019016 4.89809836,15.0897705 L21.1787541,25.0300984 C21.9761311,25.5173115 22.3971148,26.3763279 22.4167869,27.300918 C22.3944918,28.236 21.8908852,29.0622295 21.0699016,29.5107541 L4.38662295,38.6255082 C1.87121311,39.9999344 0.268590164,42.6340328 0.203672131,45.4996066 L0.200393443,45.6550164 C0.134819672,48.5619016 1.5787541,51.1979672 4.064,52.7074754 C6.5492459,54.2169836 9.55514754,54.2838689 12.1046557,52.8858361 L43.3085902,35.7737049 L43.6121967,35.7750164 L60.2521967,36.1507541 C64.6843279,36.2504262 68.3708852,32.7258361 68.4712131,28.2943607 C68.5708852,23.8622295 65.0469508,20.1750164 60.6141639,20.0746885 L43.688918,19.6930492 L43.4259672,19.5382951 L13.2705574,1.18681967 C10.786623,-0.324 7.78072131,-0.393508197 5.22990164,1.00255738" id="Fill-4" fill="#FFFFFF" mask="url(#mask-5)"></path>
                    </g>
                    <g id="Group-9" transform="translate(16.393443, 64.915410)">
                        <mask id="mask-7" fill="white">
                            <use xlink:href="#path-6"></use>
                        </mask>
                        <g id="Clip-8"></g>
                        <path d="M85.2087213,4.69842623 C83.5877377,2.15744262 80.8238033,0.641377049 77.8172459,0.641377049 C74.4572459,0.641377049 71.3418361,2.64006557 69.879541,5.7344918 C65.0283934,15.991541 54.609377,22.619082 43.3365902,22.619082 C32.1634754,22.619082 21.8159344,15.9935082 16.9739672,5.74039344 C15.5110164,2.64268852 12.3949508,0.641377049 9.01593443,0.641377049 C6.01265574,0.641377049 3.25134426,2.15481967 1.62970492,4.69055738 C0.0290491803,7.19154098 -0.186688525,10.2859672 1.05068852,12.9672787 C8.63495082,29.388918 25.2460984,40.0000656 43.3687213,40.0000656 C61.5083934,40.0000656 78.1536393,29.3948197 85.7752787,12.9823607 C87.0198689,10.3003934 86.8080656,7.204 85.2087213,4.69842623" id="Fill-7" fill="#FFFFFF" mask="url(#mask-7)"></path>
                    </g>
                </g>
            </g>
        </g>
    </g>
</svg>