<?xml version="1.0" encoding="UTF-8"?>
<svg width="190px" height="190px" viewBox="0 0 190 190" version="1.1" xmlns="http://www.w3.org/2000/svg" xmlns:xlink="http://www.w3.org/1999/xlink">
    <!-- Generator: Sketch 51.2 (57519) - http://www.bohemiancoding.com/sketch -->
    <title>category-otros</title>
    <desc>Created with Sketch.</desc>
    <defs>
        <linearGradient x1="50%" y1="-4.88712478%" x2="50%" y2="121.653613%" id="linearGradient-1">
            <stop stop-color="#4191F1" offset="13%"></stop>
            <stop stop-color="#5F58E5" offset="49%"></stop>
            <stop stop-color="#812CC9" offset="86%"></stop>
        </linearGradient>
        <polygon id="path-2" points="2.51025023e-05 0.666886364 89.756726 0.666886364 89.756726 41.5909091 2.51025023e-05 41.5909091"></polygon>
        <polygon id="path-4" points="0.291025103 0.666886364 90.047726 0.666886364 90.047726 41.5909091 0.291025103 41.5909091"></polygon>
        <polygon id="path-6" points="0.310977273 0.0252272727 52.7659773 0.0252272727 52.7659773 66.4801714 0.310977273 66.4801714"></polygon>
        <polygon id="path-8" points="0.0722727273 0.0252272727 52.5272727 0.0252272727 52.5272727 66.4801714 0.0722727273 66.4801714"></polygon>
    </defs>
    <g id="Page-1" stroke="none" stroke-width="1" fill="none" fill-rule="evenodd">
        <g id="Categories">
            <g id="category-otros" transform="translate(-47.000000, -5.000000)">
                <rect id="category-otros__bg" fill="url(#linearGradient-1)" fill-rule="nonzero" transform="translate(141.580000, 100.085000) rotate(-90.000000) translate(-141.580000, -100.085000) " x="42" y="-41" width="199.16" height="282.17"></rect>
                <g id="category-otros__face" transform="translate(96.000000, 42.000000)">
                    <g id="Group-3" transform="translate(0.000000, 78.383864)">
                        <mask id="mask-3" fill="white">
                            <use xlink:href="#path-2"></use>
                        </mask>
                        <g id="Clip-2"></g>
                        <path d="M88.3325455,4.88529545 C86.6470909,2.24325 83.7732273,0.666886364 80.6470909,0.666886364 C77.1541364,0.666886364 73.9141364,2.74506818 72.393,5.96256818 C67.3489091,16.6275682 56.5161818,23.5187045 44.7950455,23.5187045 C33.1775455,23.5187045 22.4177727,16.6296136 17.3839091,5.96870455 C15.8627727,2.74779545 12.6227727,0.666886364 9.10936364,0.666886364 C5.98663636,0.666886364 3.1155,2.24052273 1.42868182,4.87711364 C-0.234954545,7.47756818 -0.459272727,10.6950682 0.827318182,13.4830227 C8.71322727,30.5577955 25.9850455,41.5909773 44.8277727,41.5909773 C63.6889091,41.5909773 80.9968636,30.5639318 88.9216364,13.4987045 C90.2157273,10.7100682 89.9955,7.49052273 88.3325455,4.88529545" id="Fill-1" fill="#FFFFFF" mask="url(#mask-3)"></path>
                    </g>
                    <g id="Group-6" transform="translate(0.000000, 78.383864)">
                        <mask id="mask-5" fill="white">
                            <use xlink:href="#path-4"></use>
                        </mask>
                        <g id="Clip-5"></g>
                        <path d="M88.6235455,4.88529545 C86.9380909,2.24325 84.0642273,0.666886364 80.9380909,0.666886364 C77.4451364,0.666886364 74.2051364,2.74506818 72.684,5.96256818 C67.6399091,16.6275682 56.8071818,23.5187045 45.0860455,23.5187045 C33.4685455,23.5187045 22.7087727,16.6296136 17.6749091,5.96870455 C16.1537727,2.74779545 12.9137727,0.666886364 9.40036364,0.666886364 C6.27763636,0.666886364 3.4065,2.24052273 1.71968182,4.87711364 C0.0560454545,7.47756818 -0.168272727,10.6950682 1.11831818,13.4830227 C9.00422727,30.5577955 26.2760455,41.5909773 45.1187727,41.5909773 C63.9799091,41.5909773 81.2878636,30.5639318 89.2126364,13.4987045 C90.5067273,10.7100682 90.2865,7.49052273 88.6235455,4.88529545" id="Fill-4" fill="#FFFFFF" mask="url(#mask-5)"></path>
                    </g>
                    <g id="Group-9" transform="translate(36.136364, 0.656591)">
                        <mask id="mask-7" fill="white">
                            <use xlink:href="#path-6"></use>
                        </mask>
                        <g id="Clip-8"></g>
                        <path d="M43.9943864,0.0250227273 L43.9937045,0.0250227273 C39.1493864,0.0250227273 35.2221136,3.95229545 35.2221136,8.79729545 L35.2221136,39.6434318 C35.2221136,44.2804773 31.7359773,48.3536591 27.1084773,48.6516136 C22.0671136,48.9754773 17.8548409,44.96025 17.8548409,39.9863864 L17.8548409,8.79729545 C17.8548409,3.95229545 13.9275682,0.0250227273 9.08325,0.0250227273 C4.23825,0.0250227273 0.310977273,3.95229545 0.310977273,8.79729545 L0.310977273,39.6379773 C0.310977273,54.2936591 12.3034773,66.7054773 26.9571136,66.4770682 C41.2084773,66.2554773 52.7659773,54.7313864 52.7659773,40.2522955 L52.7659773,8.79729545 C52.7659773,3.95229545 48.8387045,0.0250227273 43.9943864,0.0250227273" id="Fill-7" fill="#FFFFFF" mask="url(#mask-7)"></path>
                    </g>
                    <g id="Group-12" transform="translate(1.363636, 0.656591)">
                        <mask id="mask-9" fill="white">
                            <use xlink:href="#path-8"></use>
                        </mask>
                        <g id="Clip-11"></g>
                        <path d="M43.7556818,0.0250227273 L43.755,0.0250227273 C38.9106818,0.0250227273 34.9827273,3.95229545 34.9827273,8.79729545 L34.9827273,39.6434318 C34.9827273,44.2804773 31.4972727,48.3536591 26.8697727,48.6516136 C21.8284091,48.9754773 17.6161364,44.96025 17.6161364,39.9863864 L17.6161364,8.79729545 C17.6161364,3.95229545 13.6888636,0.0250227273 8.84386364,0.0250227273 C3.99954545,0.0250227273 0.0722727273,3.95229545 0.0722727273,8.79729545 L0.0722727273,39.6379773 C0.0722727273,54.2936591 12.0647727,66.7054773 26.7184091,66.4770682 C40.9697727,66.2554773 52.5272727,54.7313864 52.5272727,40.2522955 L52.5272727,8.79729545 C52.5272727,3.95229545 48.6,0.0250227273 43.7556818,0.0250227273" id="Fill-10" fill="#FFFFFF" mask="url(#mask-9)"></path>
                    </g>
                </g>
            </g>
        </g>
    </g>
</svg>