<?xml version="1.0" encoding="UTF-8"?>
<svg width="169px" height="162px" viewBox="0 0 169 162" version="1.1" xmlns="http://www.w3.org/2000/svg" xmlns:xlink="http://www.w3.org/1999/xlink">
    <!-- Generator: Sketch 51.2 (57519) - http://www.bohemiancoding.com/sketch -->
    <title>category-gym</title>
    <desc>Created with Sketch.</desc>
    <defs></defs>
    <g id="Page-1" stroke="none" stroke-width="1" fill="none" fill-rule="evenodd">
        <g id="Categories" transform="translate(-11.000000, -14.000000)" fill="#FFFFFF">
            <g id="category-gym" transform="translate(11.000000, 14.000000)">
                <path d="M75.921,7.2236 C73.917,3.5616 70.23,1.3206 66.058,1.2266 L65.809,1.2206 C61.709,1.1286 57.834,3.2446 55.698,6.7466 L41.428,30.1186 C40.728,31.2636 39.496,31.8686 38.168,31.8966 C36.826,31.8646 35.64,31.1406 34.997,29.9636 L21.911,6.0136 C19.938,2.4026 16.157,0.1016 12.043,0.0086 L11.82,0.0036 C7.648,-0.0904 3.863,1.9816 1.696,5.5496 C-0.471,9.1176 -0.567,13.4326 1.441,17.0926 L26.005,61.8876 L26.003,62.3236 L25.464,86.2106 C25.321,92.5736 30.38,97.8666 36.742,98.0096 C43.105,98.1536 48.398,93.0936 48.542,86.7316 L49.089,62.4326 L49.312,62.0566 L75.656,18.7666 C77.826,15.2006 77.925,10.8856 75.921,7.2236" id="Fill-1"></path>
                <path d="M167.5109,7.2236 C165.5079,3.5616 161.8199,1.3206 157.6479,1.2266 L157.3989,1.2206 C153.2989,1.1286 149.4249,3.2446 147.2879,6.7466 L133.0189,30.1186 C132.3189,31.2636 131.0859,31.8686 129.7579,31.8966 C128.4159,31.8646 127.2299,31.1406 126.5869,29.9636 L113.5019,6.0136 C111.5289,2.4026 107.7469,0.1016 103.6329,0.0086 L103.4099,0.0036 C99.2379,-0.0904 95.4529,1.9816 93.2859,5.5496 C91.1189,9.1176 91.0229,13.4326 93.0309,17.0926 L117.5959,61.8876 L117.5939,62.3236 L117.0549,86.2106 C116.9109,92.5736 121.9699,97.8666 128.3319,98.0096 C134.6949,98.1536 139.9889,93.0936 140.1319,86.7316 L140.6799,62.4326 L140.9029,62.0566 L167.2459,18.7666 C169.4159,15.2006 169.5149,10.8856 167.5109,7.2236" id="Fill-3"></path>
                <path d="M141.129,110.4648 C138.802,106.8178 134.835,104.6408 130.518,104.6408 C125.695,104.6408 121.222,107.5098 119.123,111.9518 C112.158,126.6758 97.202,136.1908 81.02,136.1908 C64.98,136.1908 50.125,126.6788 43.174,111.9608 C41.075,107.5138 36.601,104.6408 31.75,104.6408 C27.439,104.6408 23.475,106.8128 21.146,110.4538 C18.849,114.0438 18.539,118.4868 20.316,122.3348 C31.203,145.9098 55.049,161.1418 81.065,161.1418 C107.106,161.1418 131.002,145.9178 141.942,122.3568 C143.729,118.5068 143.425,114.0618 141.129,110.4648" id="Fill-5"></path>
            </g>
        </g>
    </g>
</svg>