<?xml version="1.0" encoding="UTF-8"?>
<svg width="190px" height="190px" viewBox="0 0 190 190" version="1.1" xmlns="http://www.w3.org/2000/svg" xmlns:xlink="http://www.w3.org/1999/xlink">
    <!-- Generator: Sketch 51.2 (57519) - http://www.bohemiancoding.com/sketch -->
    <title>category-bisuteria</title>
    <desc>Created with Sketch.</desc>
    <defs>
        <linearGradient x1="50%" y1="-11.4682638%" x2="50%" y2="136.974165%" id="linearGradient-1">
            <stop stop-color="#7B2AFF" offset="0%"></stop>
            <stop stop-color="#AC26ED" offset="25%"></stop>
            <stop stop-color="#E71778" offset="100%"></stop>
        </linearGradient>
        <polygon id="path-2" points="0.602212747 0.664448166 88.6159237 0.664448166 88.6159237 41.4388489 0.602212747 41.4388489"></polygon>
        <polygon id="path-4" points="0.414986165 0.0247716928 51.5056336 0.0247716928 51.5056336 65.2796045 0.414986165 65.2796045"></polygon>
        <polygon id="path-6" points="0 0.0247716928 50.8914607 0.0247716928 50.8914607 65.2796045 0 65.2796045"></polygon>
    </defs>
    <g id="Page-1" stroke="none" stroke-width="1" fill="none" fill-rule="evenodd">
        <g id="Categories">
            <g id="category-bisuteria" transform="translate(-47.000000, -5.000000)">
                <rect id="category-bisuteria__bg" fill="url(#linearGradient-1)" fill-rule="nonzero" transform="translate(141.580000, 100.085000) rotate(-90.000000) translate(-141.580000, -100.085000) " x="42" y="-41" width="199.16" height="282.17"></rect>
                <g id="category-bisuteria__face" transform="translate(83.000000, 45.000000)">
                    <g id="Group-3" transform="translate(14.676259, 75.107914)">
                        <mask id="mask-3" fill="white">
                            <use xlink:href="#path-2"></use>
                        </mask>
                        <g id="Clip-2"></g>
                        <path d="M87.2193994,4.86743437 C85.5666747,2.23504847 82.7486188,0.664448166 79.6831891,0.664448166 C76.2573958,0.664448166 73.0809821,2.73503196 71.5893848,5.94076849 C66.6432453,16.5667763 56.0208793,23.432718 44.5273563,23.432718 C33.1354571,23.432718 22.5852976,16.5688142 17.6485182,5.94688242 C16.1569209,2.73774926 12.9798386,0.664448166 9.53465657,0.664448166 C6.4725697,0.664448166 3.65718808,2.23233117 2.0031263,4.85928246 C0.371796181,7.45022951 0.151834046,10.655966 1.41344058,13.4337276 C9.1462128,30.4460734 26.0826287,41.4389169 44.5601166,41.4389169 C63.054319,41.4389169 80.0261695,30.4521873 87.7970507,13.449352 C89.0660116,10.6709112 88.8500609,7.46313669 87.2193994,4.86743437" id="Fill-1" fill="#FFFFFF" mask="url(#mask-3)"></path>
                    </g>
                    <g id="Group-6" transform="translate(68.201439, 0.000000)">
                        <mask id="mask-5" fill="white">
                            <use xlink:href="#path-4"></use>
                        </mask>
                        <g id="Clip-5"></g>
                        <path d="M42.9615274,0.0245708413 C38.2425457,0.0245708413 34.4174211,3.88092086 34.4174211,8.6384249 L34.4174211,38.9275102 C34.4174211,43.4808152 31.021959,47.4804393 26.5148201,47.7730131 C21.6052463,48.091028 17.5025346,44.1483118 17.5025346,39.2642713 L17.5025346,8.6384249 C17.5025346,3.88092086 13.676746,0.0245708413 8.95842833,0.0245708413 C4.2394466,0.0245708413 0.414986165,3.88092086 0.414986165,8.6384249 L0.414986165,38.9221542 C0.414986165,53.3131687 12.0948976,65.5008416 26.3680576,65.2765573 C40.2480797,65.0589681 51.5056336,53.742991 51.5056336,39.5253784 L51.5056336,8.6384249 C51.5056336,3.88092086 47.679845,0.0245708413 42.9615274,0.0245708413" id="Fill-4" fill="#FFFFFF" mask="url(#mask-5)"></path>
                    </g>
                    <g id="Group-9">
                        <mask id="mask-7" fill="white">
                            <use xlink:href="#path-6"></use>
                        </mask>
                        <g id="Clip-8"></g>
                        <path d="M42.3813047,0.0245708413 L42.3806432,0.0245708413 C37.6807086,0.0245708413 33.8704872,3.88092086 33.8704872,8.6384249 L33.8704872,38.9275102 C33.8704872,43.4808152 30.4882541,47.4804393 25.9986755,47.7730131 C21.1075683,48.091028 17.0208413,44.1483118 17.0208413,39.2642713 L17.0208413,8.6384249 C17.0208413,3.88092086 13.2106198,0.0245708413 8.51068523,0.0245708413 C3.81008913,0.0245708413 -0.000132299355,3.88092086 -0.000132299355,8.6384249 L-0.000132299355,38.9221542 C-0.000132299355,53.3131687 11.6349345,65.5008416 25.8518232,65.2765573 C39.6784289,65.0589681 50.8914607,53.742991 50.8914607,39.5253784 L50.8914607,8.6384249 C50.8914607,3.88092086 47.0812393,0.0245708413 42.3813047,0.0245708413" id="Fill-7" fill="#FFFFFF" mask="url(#mask-7)"></path>
                    </g>
                </g>
            </g>
        </g>
    </g>
</svg>