<?xml version="1.0" encoding="UTF-8"?>
<svg width="170px" height="165px" viewBox="0 0 170 165" version="1.1" xmlns="http://www.w3.org/2000/svg" xmlns:xlink="http://www.w3.org/1999/xlink">
    <!-- Generator: Sketch 51.2 (57519) - http://www.bohemiancoding.com/sketch -->
    <title>category-hogar</title>
    <desc>Created with Sketch.</desc>
    <defs>
        <polygon id="path-1" points="0.548358334 0.3 124.470222 0.3 124.470222 56.8016 0.548358334 56.8016"></polygon>
        <polygon id="path-3" points="0.605 0.2491 73.027 0.2491 73.027 92 0.605 92"></polygon>
        <polygon id="path-5" points="0 0.2491 72.422 0.2491 72.422 92 0 92"></polygon>
    </defs>
    <g id="Page-1" stroke="none" stroke-width="1" fill="none" fill-rule="evenodd">
        <g id="Categories" transform="translate(-10.000000, -13.000000)">
            <g id="category-hogar" transform="translate(10.000000, 12.000000)">
                <g id="Group-3" transform="translate(23.000000, 0.700000)">
                    <mask id="mask-2" fill="white">
                        <use xlink:href="#path-1"></use>
                    </mask>
                    <g id="Clip-2"></g>
                    <path d="M2.5146,50.9766 C4.8416,54.6246 8.8086,56.8016 13.1256,56.8016 C17.9486,56.8016 22.4216,53.9326 24.5206,49.4896 C31.4856,34.7656 46.4416,25.2506 62.6246,25.2506 C78.6636,25.2506 93.5186,34.7626 100.4696,49.4816 C102.5686,53.9276 107.0426,56.8016 111.8936,56.8016 C116.2046,56.8016 120.1686,54.6286 122.4976,50.9876 C124.7946,47.3976 125.1046,42.9556 123.3276,39.1066 C112.4406,15.5316 88.5946,0.2996 62.5786,0.2996 C36.5376,0.2996 12.6416,15.5236 1.7016,39.0846 C-0.0854,42.9346 0.2186,47.3796 2.5146,50.9766" id="Fill-1" fill="#FFFFFF" mask="url(#mask-2)"></path>
                </g>
                <g id="Group-6" transform="translate(96.000000, 73.700000)">
                    <mask id="mask-4" fill="white">
                        <use xlink:href="#path-3"></use>
                    </mask>
                    <g id="Clip-5"></g>
                    <path d="M60.916,0.2491 L60.915,0.2491 C54.227,0.2491 48.804,5.6711 48.804,12.3601 L48.804,54.9481 C48.804,61.3501 43.991,66.9741 37.603,67.3851 C30.643,67.8321 24.827,62.2881 24.827,55.4221 L24.827,12.3601 C24.827,5.6711 19.405,0.2491 12.716,0.2491 C6.027,0.2491 0.605,5.6711 0.605,12.3601 L0.605,54.9401 C0.605,75.1741 17.162,92.3111 37.394,91.9961 C57.07,91.6891 73.027,75.7791 73.027,55.7891 L73.027,12.3601 C73.027,5.6711 67.604,0.2491 60.916,0.2491" id="Fill-4" fill="#FFFFFF" mask="url(#mask-4)"></path>
                </g>
                <g id="Group-9" transform="translate(0.000000, 73.700000)">
                    <mask id="mask-6" fill="white">
                        <use xlink:href="#path-5"></use>
                    </mask>
                    <g id="Clip-8"></g>
                    <path d="M60.311,0.2491 L60.31,0.2491 C53.622,0.2491 48.199,5.6711 48.199,12.3601 L48.199,54.9481 C48.199,61.3501 43.386,66.9741 36.998,67.3851 C30.038,67.8321 24.222,62.2881 24.222,55.4221 L24.222,12.3601 C24.222,5.6711 18.8,0.2491 12.111,0.2491 C5.422,0.2491 0,5.6711 0,12.3601 L0,54.9401 C0,75.1741 16.557,92.3111 36.789,91.9961 C56.464,91.6891 72.422,75.7791 72.422,55.7891 L72.422,12.3601 C72.422,5.6711 66.999,0.2491 60.311,0.2491" id="Fill-7" fill="#FFFFFF" mask="url(#mask-6)"></path>
                </g>
            </g>
        </g>
    </g>
</svg>