<?xml version="1.0" encoding="UTF-8"?>
<svg width="190px" height="190px" viewBox="0 0 190 190" version="1.1" xmlns="http://www.w3.org/2000/svg" xmlns:xlink="http://www.w3.org/1999/xlink">
    <!-- Generator: Sketch 51.2 (57519) - http://www.bohemiancoding.com/sketch -->
    <title>category-tecnologia</title>
    <desc>Created with Sketch.</desc>
    <defs>
        <linearGradient x1="49.9949789%" y1="-13.6584329%" x2="49.9949789%" y2="166.913563%" id="linearGradient-1">
            <stop stop-color="#FFE30A" offset="0%"></stop>
            <stop stop-color="#D4E627" offset="15%"></stop>
            <stop stop-color="#67EC71" offset="47%"></stop>
            <stop stop-color="#28F09B" offset="66%"></stop>
            <stop stop-color="#25CAE0" offset="100%"></stop>
        </linearGradient>
        <polygon id="path-2" points="0.102858632 0.690423529 93.027387 0.690423529 93.027387 43.0588235 0.102858632 43.0588235"></polygon>
        <polygon id="path-4" points="0.493482353 0.602117647 65.8291765 0.602117647 65.8291765 32.9744653 0.493482353 32.9744653"></polygon>
        <polygon id="path-6" points="0 0.609087679 65.3370354 0.609087679 65.3370354 32.985555 0 32.985555"></polygon>
    </defs>
    <g id="Page-1" stroke="none" stroke-width="1" fill="none" fill-rule="evenodd">
        <g id="Categories">
            <g id="category-tecnologia" transform="translate(-47.000000, -5.000000)">
                <rect id="category-tecnologia__bg" fill="url(#linearGradient-1)" fill-rule="nonzero" transform="translate(141.580000, 100.085000) rotate(-90.000000) translate(-141.580000, -100.085000) " x="42" y="-41" width="199.16" height="282.17"></rect>
                <g id="category-tecnologia__face" transform="translate(83.000000, 53.000000)">
                    <g id="Group-3" transform="translate(11.294118, 62.927294)">
                        <mask id="mask-3" fill="white">
                            <use xlink:href="#path-2"></use>
                        </mask>
                        <g id="Clip-2"></g>
                        <path d="M91.5529412,5.05771765 C89.808,2.32242353 86.8327059,0.690423529 83.5962353,0.690423529 C79.9792941,0.690423529 76.6256471,2.84195294 75.0515294,6.17301176 C69.8294118,17.2144235 58.6136471,24.3487765 46.4788235,24.3487765 C34.4512941,24.3487765 23.3124706,17.2165412 18.1002353,6.17936471 C16.5254118,2.84477647 13.1710588,0.690423529 9.53364706,0.690423529 C6.30070588,0.690423529 3.32823529,2.3196 1.58258824,5.04924706 C-0.140470588,7.74148235 -0.372705882,11.0725412 0.959294118,13.9588941 C9.12352941,31.6363059 27.0049412,43.0588941 46.5134118,43.0588941 C66.0402353,43.0588941 83.9583529,31.6426588 92.1628235,13.9751294 C93.5025882,11.0880706 93.2745882,7.75489412 91.5529412,5.05771765" id="Fill-1" fill="#FFFFFF" mask="url(#mask-3)"></path>
                    </g>
                    <g id="Group-6" transform="translate(53.647059, 0.103765)">
                        <mask id="mask-5" fill="white">
                            <use xlink:href="#path-4"></use>
                        </mask>
                        <g id="Clip-5"></g>
                        <path d="M65.8292471,16.7371765 C65.8292471,10.3207059 62.0908941,4.74564706 56.6492471,2.07952941 C53.5892471,0.580235294 50.0880706,0.261176471 46.7506588,0.944470588 C36.3000706,3.084 17.5539529,7.01717647 7.87065882,8.52211765 C3.77018824,9.16023529 0.493482353,12.5188235 0.493482353,16.7597647 C0.493482353,21.1157647 3.85842353,24.6818824 8.07889412,25.0651765 C8.55748235,25.1082353 35.6845412,30.444 46.8106588,32.6428235 C49.8226588,33.2378824 52.9793647,33.0628235 55.8078353,31.8677647 C61.7019529,29.3774118 65.8292471,23.5468235 65.8292471,16.7371765" id="Fill-4" fill="#FFFFFF" mask="url(#mask-5)"></path>
                    </g>
                    <g id="Group-9" transform="translate(0.000000, 0.103765)">
                        <mask id="mask-7" fill="white">
                            <use xlink:href="#path-6"></use>
                        </mask>
                        <g id="Clip-8"></g>
                        <path d="M-0.000141176471,16.8484941 C0.000564705882,23.2656706 3.73962353,28.8414353 9.18197647,31.5082588 C12.2419765,33.0068471 15.7431529,33.3266118 19.0812706,32.6426118 C29.5311529,30.5030824 48.2772706,26.5699059 57.9605647,25.0642588 C62.0603294,24.4261412 65.3377412,21.0675529 65.3370353,16.8259059 C65.3363294,12.4692 61.9706824,8.90237647 57.7502118,8.51978824 C57.2716235,8.47602353 30.1431529,3.13955294 19.0170353,0.940729412 C16.0043294,0.345670588 12.8476235,0.520729412 10.0191529,1.71578824 C4.12574118,4.20614118 -0.000847058824,10.0374353 -0.000141176471,16.8484941" id="Fill-7" fill="#FFFFFF" mask="url(#mask-7)"></path>
                    </g>
                </g>
            </g>
        </g>
    </g>
</svg>