<?xml version="1.0" encoding="UTF-8"?>
<svg width="190px" height="190px" viewBox="0 0 190 190" version="1.1" xmlns="http://www.w3.org/2000/svg" xmlns:xlink="http://www.w3.org/1999/xlink">
    <!-- Generator: Sketch 51.2 (57519) - http://www.bohemiancoding.com/sketch -->
    <title>category-ropa</title>
    <desc>Created with Sketch.</desc>
    <defs>
        <linearGradient x1="49.9949789%" y1="-13.6584329%" x2="49.9949789%" y2="166.913563%" id="linearGradient-1">
            <stop stop-color="#FFE30A" offset="0%"></stop>
            <stop stop-color="#D4E627" offset="15%"></stop>
            <stop stop-color="#67EC71" offset="47%"></stop>
            <stop stop-color="#28F09B" offset="66%"></stop>
            <stop stop-color="#25CAE0" offset="100%"></stop>
        </linearGradient>
        <polygon id="path-2" points="0 0.211764706 51.1213412 0.211764706 51.1213412 64.9766824 0 64.9766824"></polygon>
        <polygon id="path-4" points="0.426988235 0.211764706 51.5484 0.211764706 51.5484 64.9766824 0.426988235 64.9766824"></polygon>
    </defs>
    <g id="Page-1" stroke="none" stroke-width="1" fill="none" fill-rule="evenodd">
        <g id="Categories">
            <g id="category-ropa" transform="translate(-47.000000, -5.000000)">
                <rect id="category-ropa__bg" fill="url(#linearGradient-1)" fill-rule="nonzero" transform="translate(141.580000, 100.085000) rotate(-90.000000) translate(-141.580000, -100.085000) " x="42" y="-41" width="199.16" height="282.17"></rect>
                <g id="category-ropa__face" transform="translate(84.000000, 45.000000)">
                    <path d="M101.302447,81.1925647 C99.6598588,78.6182118 96.8596235,77.0815059 93.8123294,77.0815059 C90.4078588,77.0815059 87.2504471,79.1066824 85.7688,82.2422118 C80.8530353,92.6356235 70.2951529,99.3520941 58.8725647,99.3520941 C47.5509176,99.3520941 37.0643294,92.6377412 32.1584471,82.2485647 C30.6760941,79.1095059 27.5179765,77.0815059 24.0944471,77.0815059 C21.0506824,77.0815059 18.2525647,78.6146824 16.6092706,81.1848 C14.9871529,83.7189176 14.7690353,86.8551529 16.0226824,89.5713882 C23.7083294,106.212565 40.5400941,116.964565 58.9050353,116.964565 C77.2862118,116.964565 94.1539765,106.218212 101.876329,89.5869176 C103.138447,86.8692706 102.923153,83.7316235 101.302447,81.1925647" id="Fill-1" fill="#FFFFFF"></path>
                    <g id="Group-5" transform="translate(0.000000, 0.494118)">
                        <mask id="mask-3" fill="white">
                            <use xlink:href="#path-2"></use>
                        </mask>
                        <g id="Clip-4"></g>
                        <path d="M8.54887059,64.9766824 C13.2705176,64.9766824 17.0978118,61.1493882 17.0978118,56.4277412 L17.0978118,26.3656235 C17.0978118,21.8465647 20.4959294,17.8766824 25.0051059,17.5865647 C29.9180471,17.2710353 34.0234588,21.1844471 34.0234588,26.0317412 L34.0234588,56.4277412 C34.0234588,61.1493882 37.8507529,64.9766824 42.5724,64.9766824 C47.2940471,64.9766824 51.1213412,61.1493882 51.1213412,56.4277412 L51.1213412,26.3712706 C51.1213412,12.0884471 39.4340471,-0.00825882353 25.1526353,0.214094118 C11.2636941,0.4308 -7.05882353e-05,11.6613882 -7.05882353e-05,25.7719765 L-7.05882353e-05,56.4277412 C-7.05882353e-05,61.1493882 3.82722353,64.9766824 8.54887059,64.9766824" id="Fill-3" fill="#FFFFFF" mask="url(#mask-3)"></path>
                    </g>
                    <g id="Group-8" transform="translate(67.764706, 0.494118)">
                        <mask id="mask-5" fill="white">
                            <use xlink:href="#path-4"></use>
                        </mask>
                        <g id="Clip-7"></g>
                        <path d="M8.97592941,64.9766824 L8.97663529,64.9766824 C13.6975765,64.9766824 17.5255765,61.1493882 17.5255765,56.4277412 L17.5255765,26.3656235 C17.5255765,21.8465647 20.9229882,17.8766824 25.4321647,17.5865647 C30.3451059,17.2710353 34.4505176,21.1844471 34.4505176,26.0317412 L34.4505176,56.4277412 C34.4505176,61.1493882 38.2778118,64.9766824 42.9994588,64.9766824 C47.7211059,64.9766824 51.5484,61.1493882 51.5484,56.4277412 L51.5484,26.3712706 C51.5484,12.0884471 39.8611059,-0.00825882353 25.5796941,0.214094118 C11.6907529,0.4308 0.426988235,11.6613882 0.426988235,25.7719765 L0.426988235,56.4277412 C0.426988235,61.1493882 4.25498824,64.9766824 8.97592941,64.9766824" id="Fill-6" fill="#FFFFFF" mask="url(#mask-5)"></path>
                    </g>
                </g>
            </g>
        </g>
    </g>
</svg>