<?xml version="1.0" encoding="UTF-8"?>
<svg width="176px" height="165px" viewBox="0 0 176 165" version="1.1" xmlns="http://www.w3.org/2000/svg" xmlns:xlink="http://www.w3.org/1999/xlink">
    <!-- Generator: Sketch 51.2 (57519) - http://www.bohemiancoding.com/sketch -->
    <title>category-promos</title>
    <desc>Created with Sketch.</desc>
    <defs>
        <polygon id="path-1" points="0.9462 0.299 92.5742 0.299 92.5742 92.0494 0.9462 92.0494"></polygon>
        <polygon id="path-3" points="0 0.299 91.6279 0.299 91.6279 92.0494 0 92.0494"></polygon>
    </defs>
    <g id="Page-1" stroke="none" stroke-width="1" fill="none" fill-rule="evenodd">
        <g id="Categories" transform="translate(-7.000000, -13.000000)">
            <g id="category-promos" transform="translate(7.000000, 12.000000)">
                <g id="Group-3" transform="translate(83.000000, 0.701000)">
                    <mask id="mask-2" fill="white">
                        <use xlink:href="#path-1"></use>
                    </mask>
                    <g id="Clip-2"></g>
                    <path d="M46.6992,24.2774 C34.7102,24.2774 24.9242,34.0634 24.9242,46.1754 C24.9242,58.1634 34.7102,68.0714 46.6992,68.0714 C58.8102,68.0714 68.5972,58.1634 68.5972,46.1754 C68.5972,34.0634 58.8102,24.2774 46.6992,24.2774 M46.6992,0.2984 C72.0222,0.2984 92.5742,20.9734 92.5742,46.2974 C92.5742,71.6204 72.0222,92.0494 46.6992,92.0494 C21.3762,92.0494 0.9462,71.6204 0.9462,46.2974 C0.9462,20.9734 21.3762,0.2984 46.6992,0.2984" id="Fill-1" fill="#FFFFFF" mask="url(#mask-2)"></path>
                </g>
                <g id="Group-6" transform="translate(0.000000, 0.701000)">
                    <mask id="mask-4" fill="white">
                        <use xlink:href="#path-3"></use>
                    </mask>
                    <g id="Clip-5"></g>
                    <path d="M45.7529,24.2774 C33.7639,24.2774 23.9779,34.0634 23.9779,46.1754 C23.9779,58.1634 33.7639,68.0714 45.7529,68.0714 C57.8639,68.0714 67.6509,58.1634 67.6509,46.1754 C67.6509,34.0634 57.8639,24.2774 45.7529,24.2774 M45.7529,0.2984 C71.0759,0.2984 91.6279,20.9734 91.6279,46.2974 C91.6279,71.6204 71.0759,92.0494 45.7529,92.0494 C20.4299,92.0494 -0.0001,71.6204 -0.0001,46.2974 C-0.0001,20.9734 20.4299,0.2984 45.7529,0.2984" id="Fill-4" fill="#FFFFFF" mask="url(#mask-4)"></path>
                </g>
                <path d="M144.6485,115.0238 C142.3215,111.3768 138.3545,109.1998 134.0375,109.1998 C129.2145,109.1998 124.7415,112.0688 122.6425,116.5108 C115.6775,131.2348 100.7215,140.7498 84.5385,140.7498 C68.4995,140.7498 53.6445,131.2378 46.6935,116.5198 C44.5945,112.0728 40.1205,109.1998 35.2695,109.1998 C30.9585,109.1998 26.9945,111.3718 24.6655,115.0128 C22.3685,118.6028 22.0585,123.0458 23.8355,126.8938 C34.7225,150.4688 58.5685,165.7008 84.5845,165.7008 C110.6255,165.7008 134.5215,150.4768 145.4615,126.9158 C147.2485,123.0658 146.9445,118.6208 144.6485,115.0238" id="Fill-7" fill="#FFFFFF"></path>
            </g>
        </g>
    </g>
</svg>