<?xml version="1.0" encoding="UTF-8"?>
<svg width="180px" height="175px" viewBox="0 0 180 175" version="1.1" xmlns="http://www.w3.org/2000/svg" xmlns:xlink="http://www.w3.org/1999/xlink">
    <!-- Generator: Sketch 51.2 (57519) - http://www.bohemiancoding.com/sketch -->
    <title>category-bisuteria</title>
    <desc>Created with Sketch.</desc>
    <defs>
        <polygon id="path-1" points="0.900736817 0.9781 132.543898 0.9781 132.543898 61 0.900736817 61"></polygon>
        <polygon id="path-3" points="0.6249 0.037 77.5589 0.037 77.5589 97.5042514 0.6249 97.5042514"></polygon>
        <polygon id="path-5" points="0 0.037 76.9338 0.037 76.9338 97.5042514 0 97.5042514"></polygon>
    </defs>
    <g id="Page-1" stroke="none" stroke-width="1" fill="none" fill-rule="evenodd">
        <g id="Categories" transform="translate(-5.000000, -8.000000)">
            <g id="category-bisuteria" transform="translate(5.000000, 7.000000)">
                <g id="Group-3" transform="translate(22.000000, 114.963000)">
                    <mask id="mask-2" fill="white">
                        <use xlink:href="#path-1"></use>
                    </mask>
                    <g id="Clip-2"></g>
                    <path d="M130.4551,7.1651 C127.9831,3.2901 123.7681,0.9781 119.1831,0.9781 C114.0591,0.9781 109.3081,4.0261 107.0771,8.7451 C99.6791,24.3871 83.7911,34.4941 66.6001,34.4941 C49.5611,34.4941 33.7811,24.3901 26.3971,8.7541 C24.1661,4.0301 19.4141,0.9781 14.2611,0.9781 C9.6811,0.9781 5.4701,3.2861 2.9961,7.1531 C0.5561,10.9671 0.2271,15.6861 2.1141,19.7751 C13.6801,44.8181 39.0121,61.0001 66.6491,61.0001 C94.3111,61.0001 119.6961,44.8271 131.3191,19.7981 C133.2171,15.7081 132.8941,10.9861 130.4551,7.1651" id="Fill-1" fill="#FFFFFF" mask="url(#mask-2)"></path>
                </g>
                <g id="Group-6" transform="translate(102.000000, 0.963000)">
                    <mask id="mask-4" fill="white">
                        <use xlink:href="#path-3"></use>
                    </mask>
                    <g id="Clip-5"></g>
                    <path d="M64.6929,0.0367 C57.5869,0.0367 51.8269,5.7967 51.8269,12.9027 L51.8269,58.1437 C51.8269,64.9447 46.7139,70.9187 39.9269,71.3557 C32.5339,71.8307 26.3559,65.9417 26.3559,58.6467 L26.3559,12.9027 C26.3559,5.7967 20.5949,0.0367 13.4899,0.0367 C6.3839,0.0367 0.6249,5.7967 0.6249,12.9027 L0.6249,58.1357 C0.6249,79.6307 18.2129,97.8347 39.7059,97.4997 C60.6069,97.1747 77.5589,80.2727 77.5589,59.0367 L77.5589,12.9027 C77.5589,5.7967 71.7979,0.0367 64.6929,0.0367" id="Fill-4" fill="#FFFFFF" mask="url(#mask-4)"></path>
                </g>
                <g id="Group-9" transform="translate(0.000000, 0.963000)">
                    <mask id="mask-6" fill="white">
                        <use xlink:href="#path-5"></use>
                    </mask>
                    <g id="Clip-8"></g>
                    <path d="M64.0688,0.0367 L64.0678,0.0367 C56.9628,0.0367 51.2028,5.7967 51.2028,12.9027 L51.2028,58.1437 C51.2028,64.9447 46.0898,70.9187 39.3028,71.3557 C31.9088,71.8307 25.7308,65.9417 25.7308,58.6467 L25.7308,12.9027 C25.7308,5.7967 19.9708,0.0367 12.8658,0.0367 C5.7598,0.0367 -0.0002,5.7967 -0.0002,12.9027 L-0.0002,58.1357 C-0.0002,79.6307 17.5888,97.8347 39.0808,97.4997 C59.9828,97.1747 76.9338,80.2727 76.9338,59.0367 L76.9338,12.9027 C76.9338,5.7967 71.1738,0.0367 64.0688,0.0367" id="Fill-7" fill="#FFFFFF" mask="url(#mask-6)"></path>
                </g>
            </g>
        </g>
    </g>
</svg>