<?xml version="1.0" encoding="UTF-8"?>
<svg width="133px" height="175px" viewBox="0 0 133 175" version="1.1" xmlns="http://www.w3.org/2000/svg" xmlns:xlink="http://www.w3.org/1999/xlink">
    <!-- Generator: Sketch 51.2 (57519) - http://www.bohemiancoding.com/sketch -->
    <title>category-otros</title>
    <desc>Created with Sketch.</desc>
    <defs>
        <polygon id="path-1" points="3.68170034e-05 0.9781 131.643198 0.9781 131.643198 61 3.68170034e-05 61"></polygon>
        <polygon id="path-3" points="0.426836817 0.9781 132.069998 0.9781 132.069998 61 0.426836817 61"></polygon>
        <polygon id="path-5" points="0.4561 0.037 77.3901 0.037 77.3901 97.5042514 0.4561 97.5042514"></polygon>
        <polygon id="path-7" points="0.106 0.037 77.04 0.037 77.04 97.5042514 0.106 97.5042514"></polygon>
    </defs>
    <g id="Page-1" stroke="none" stroke-width="1" fill="none" fill-rule="evenodd">
        <g id="Categories" transform="translate(-29.000000, -8.000000)">
            <g id="category-otros" transform="translate(29.000000, 7.000000)">
                <g id="Group-3" transform="translate(0.000000, 114.963000)">
                    <mask id="mask-2" fill="white">
                        <use xlink:href="#path-1"></use>
                    </mask>
                    <g id="Clip-2"></g>
                    <path d="M129.5544,7.1651 C127.0824,3.2901 122.8674,0.9781 118.2824,0.9781 C113.1594,0.9781 108.4074,4.0261 106.1764,8.7451 C98.7784,24.3871 82.8904,34.4941 65.6994,34.4941 C48.6604,34.4941 32.8794,24.3901 25.4964,8.7541 C23.2654,4.0301 18.5134,0.9781 13.3604,0.9781 C8.7804,0.9781 4.5694,3.2861 2.0954,7.1531 C-0.3446,10.9671 -0.6736,15.6861 1.2134,19.7751 C12.7794,44.8181 38.1114,61.0001 65.7474,61.0001 C93.4104,61.0001 118.7954,44.8271 130.4184,19.7981 C132.3164,15.7081 131.9934,10.9861 129.5544,7.1651" id="Fill-1" fill="#FFFFFF" mask="url(#mask-2)"></path>
                </g>
                <g id="Group-6" transform="translate(0.000000, 114.963000)">
                    <mask id="mask-4" fill="white">
                        <use xlink:href="#path-3"></use>
                    </mask>
                    <g id="Clip-5"></g>
                    <path d="M129.9812,7.1651 C127.5092,3.2901 123.2942,0.9781 118.7092,0.9781 C113.5862,0.9781 108.8342,4.0261 106.6032,8.7451 C99.2052,24.3871 83.3172,34.4941 66.1262,34.4941 C49.0872,34.4941 33.3062,24.3901 25.9232,8.7541 C23.6922,4.0301 18.9402,0.9781 13.7872,0.9781 C9.2072,0.9781 4.9962,3.2861 2.5222,7.1531 C0.0822,10.9671 -0.2468,15.6861 1.6402,19.7751 C13.2062,44.8181 38.5382,61.0001 66.1742,61.0001 C93.8372,61.0001 119.2222,44.8271 130.8452,19.7981 C132.7432,15.7081 132.4202,10.9861 129.9812,7.1651" id="Fill-4" fill="#FFFFFF" mask="url(#mask-4)"></path>
                </g>
                <g id="Group-9" transform="translate(53.000000, 0.963000)">
                    <mask id="mask-6" fill="white">
                        <use xlink:href="#path-5"></use>
                    </mask>
                    <g id="Clip-8"></g>
                    <path d="M64.5251,0.0367 L64.5241,0.0367 C57.4191,0.0367 51.6591,5.7967 51.6591,12.9027 L51.6591,58.1437 C51.6591,64.9447 46.5461,70.9187 39.7591,71.3557 C32.3651,71.8307 26.1871,65.9417 26.1871,58.6467 L26.1871,12.9027 C26.1871,5.7967 20.4271,0.0367 13.3221,0.0367 C6.2161,0.0367 0.4561,5.7967 0.4561,12.9027 L0.4561,58.1357 C0.4561,79.6307 18.0451,97.8347 39.5371,97.4997 C60.4391,97.1747 77.3901,80.2727 77.3901,59.0367 L77.3901,12.9027 C77.3901,5.7967 71.6301,0.0367 64.5251,0.0367" id="Fill-7" fill="#FFFFFF" mask="url(#mask-6)"></path>
                </g>
                <g id="Group-12" transform="translate(2.000000, 0.963000)">
                    <mask id="mask-8" fill="white">
                        <use xlink:href="#path-7"></use>
                    </mask>
                    <g id="Clip-11"></g>
                    <path d="M64.175,0.0367 L64.174,0.0367 C57.069,0.0367 51.308,5.7967 51.308,12.9027 L51.308,58.1437 C51.308,64.9447 46.196,70.9187 39.409,71.3557 C32.015,71.8307 25.837,65.9417 25.837,58.6467 L25.837,12.9027 C25.837,5.7967 20.077,0.0367 12.971,0.0367 C5.866,0.0367 0.106,5.7967 0.106,12.9027 L0.106,58.1357 C0.106,79.6307 17.695,97.8347 39.187,97.4997 C60.089,97.1747 77.04,80.2727 77.04,59.0367 L77.04,12.9027 C77.04,5.7967 71.28,0.0367 64.175,0.0367" id="Fill-10" fill="#FFFFFF" mask="url(#mask-8)"></path>
                </g>
            </g>
        </g>
    </g>
</svg>