<?xml version="1.0" encoding="UTF-8"?>
<svg width="170px" height="165px" viewBox="0 0 170 165" version="1.1" xmlns="http://www.w3.org/2000/svg" xmlns:xlink="http://www.w3.org/1999/xlink">
    <!-- Generator: Sketch 51.2 (57519) - http://www.bohemiancoding.com/sketch -->
    <title>category-ropa</title>
    <desc>Created with Sketch.</desc>
    <defs>
        <polygon id="path-1" points="0 0.3 72.4219 0.3 72.4219 92.0503 0 92.0503"></polygon>
        <polygon id="path-3" points="0.6049 0.3 73.0269 0.3 73.0269 92.0503 0.6049 92.0503"></polygon>
    </defs>
    <g id="Page-1" stroke="none" stroke-width="1" fill="none" fill-rule="evenodd">
        <g id="Categories" transform="translate(-10.000000, -13.000000)">
            <g id="category-ropa" transform="translate(10.000000, 12.000000)">
                <path d="M143.5118,115.0228 C141.1848,111.3758 137.2178,109.1988 132.9008,109.1988 C128.0778,109.1988 123.6048,112.0678 121.5058,116.5098 C114.5418,131.2338 99.5848,140.7488 83.4028,140.7488 C67.3638,140.7488 52.5078,131.2368 45.5578,116.5188 C43.4578,112.0718 38.9838,109.1988 34.1338,109.1988 C29.8218,109.1988 25.8578,111.3708 23.5298,115.0118 C21.2318,118.6018 20.9228,123.0448 22.6988,126.8928 C33.5868,150.4678 57.4318,165.6998 83.4488,165.6998 C109.4888,165.6998 133.3848,150.4758 144.3248,126.9148 C146.1128,123.0648 145.8078,118.6198 143.5118,115.0228" id="Fill-1" fill="#FFFFFF"></path>
                <g id="Group-5" transform="translate(0.000000, 0.700000)">
                    <mask id="mask-2" fill="white">
                        <use xlink:href="#path-1"></use>
                    </mask>
                    <g id="Clip-4"></g>
                    <path d="M12.1109,92.0503 C18.7999,92.0503 24.2219,86.6283 24.2219,79.9393 L24.2219,37.3513 C24.2219,30.9493 29.0359,25.3253 35.4239,24.9143 C42.3839,24.4673 48.1999,30.0113 48.1999,36.8783 L48.1999,79.9393 C48.1999,86.6283 53.6219,92.0503 60.3109,92.0503 C66.9999,92.0503 72.4219,86.6283 72.4219,79.9393 L72.4219,37.3593 C72.4219,17.1253 55.8649,-0.0117 35.6329,0.3033 C15.9569,0.6103 -0.0001,16.5203 -0.0001,36.5103 L-0.0001,79.9393 C-0.0001,86.6283 5.4219,92.0503 12.1109,92.0503" id="Fill-3" fill="#FFFFFF" mask="url(#mask-2)"></path>
                </g>
                <g id="Group-8" transform="translate(96.000000, 0.700000)">
                    <mask id="mask-4" fill="white">
                        <use xlink:href="#path-3"></use>
                    </mask>
                    <g id="Clip-7"></g>
                    <path d="M12.7159,92.0503 L12.7169,92.0503 C19.4049,92.0503 24.8279,86.6283 24.8279,79.9393 L24.8279,37.3513 C24.8279,30.9493 29.6409,25.3253 36.0289,24.9143 C42.9889,24.4673 48.8049,30.0113 48.8049,36.8783 L48.8049,79.9393 C48.8049,86.6283 54.2269,92.0503 60.9159,92.0503 C67.6049,92.0503 73.0269,86.6283 73.0269,79.9393 L73.0269,37.3593 C73.0269,17.1253 56.4699,-0.0117 36.2379,0.3033 C16.5619,0.6103 0.6049,16.5203 0.6049,36.5103 L0.6049,79.9393 C0.6049,86.6283 6.0279,92.0503 12.7159,92.0503" id="Fill-6" fill="#FFFFFF" mask="url(#mask-4)"></path>
                </g>
            </g>
        </g>
    </g>
</svg>