<?xml version="1.0" encoding="UTF-8"?>
<svg width="185px" height="150px" viewBox="0 0 185 150" version="1.1" xmlns="http://www.w3.org/2000/svg" xmlns:xlink="http://www.w3.org/1999/xlink">
    <!-- Generator: Sketch 51.2 (57519) - http://www.bohemiancoding.com/sketch -->
    <title>category-maquillaje</title>
    <desc>Created with Sketch.</desc>
    <defs>
        <polygon id="path-1" points="0 0.4662 46.7376 0.4662 46.7376 47.0752 0 47.0752"></polygon>
        <polygon id="path-3" points="0.856217761 0.9781 132.498798 0.9781 132.498798 61 0.856217761 61"></polygon>
    </defs>
    <g id="Page-1" stroke="none" stroke-width="1" fill="none" fill-rule="evenodd">
        <g id="Categories" transform="translate(-3.000000, -21.000000)">
            <g id="category-maquillaje" transform="translate(3.000000, 20.000000)">
                <g id="Group-3" transform="translate(0.000000, 0.534000)">
                    <mask id="mask-2" fill="white">
                        <use xlink:href="#path-1"></use>
                    </mask>
                    <g id="Clip-2"></g>
                    <path d="M46.7376,23.7052 C46.7376,10.9102 36.2936,0.4662 23.3676,0.4662 C10.5736,0.4662 -0.0004,10.9102 -0.0004,23.7052 C-0.0004,36.6302 10.5736,47.0752 23.3676,47.0752 C36.2936,47.0752 46.7376,36.6302 46.7376,23.7052" id="Fill-1" fill="#FFFFFF" mask="url(#mask-2)"></path>
                </g>
                <path d="M184.3319,24.245 C184.3319,15.155 179.0359,7.257 171.3269,3.48 C166.9919,1.356 162.0319,0.904 157.3029,1.872 C142.4989,4.903 115.9419,10.475 102.2229,12.607 C96.4149,13.511 91.7719,18.269 91.7719,24.277 C91.7719,30.448 96.5399,35.5 102.5189,36.043 C103.1969,36.104 141.6269,43.663 157.3889,46.778 C161.6559,47.621 166.1279,47.373 170.1349,45.68 C178.4849,42.152 184.3319,33.892 184.3319,24.245" id="Fill-4" fill="#FFFFFF"></path>
                <g id="Group-8" transform="translate(6.000000, 89.534000)">
                    <mask id="mask-4" fill="white">
                        <use xlink:href="#path-3"></use>
                    </mask>
                    <g id="Clip-7"></g>
                    <path d="M130.41,7.1651 C127.938,3.2901 123.724,0.9781 119.138,0.9781 C114.015,0.9781 109.263,4.0261 107.033,8.7451 C99.635,24.3871 83.746,34.4941 66.556,34.4941 C49.516,34.4941 33.736,24.3901 26.352,8.7541 C24.122,4.0301 19.369,0.9781 14.216,0.9781 C9.637,0.9781 5.425,3.2861 2.952,7.1531 C0.512,10.9671 0.182,15.6861 2.07,19.7751 C13.635,44.8181 38.967,61.0001 66.604,61.0001 C94.267,61.0001 119.652,44.8271 131.274,19.7981 C133.172,15.7081 132.849,10.9861 130.41,7.1651" id="Fill-6" fill="#FFFFFF" mask="url(#mask-4)"></path>
                </g>
            </g>
        </g>
    </g>
</svg>