<?xml version="1.0" encoding="UTF-8"?>
<svg width="190px" height="190px" viewBox="0 0 190 190" version="1.1" xmlns="http://www.w3.org/2000/svg" xmlns:xlink="http://www.w3.org/1999/xlink">
    <!-- Generator: Sketch 51.2 (57519) - http://www.bohemiancoding.com/sketch -->
    <title>category-mascotas</title>
    <desc>Created with Sketch.</desc>
    <defs>
        <linearGradient x1="50%" y1="-3.42346812%" x2="50%" y2="140.599639%" id="linearGradient-1">
            <stop stop-color="#2AFFE2" offset="0%"></stop>
            <stop stop-color="#28F6E4" offset="12%"></stop>
            <stop stop-color="#21DEE8" offset="32%"></stop>
            <stop stop-color="#16B7F0" offset="58%"></stop>
            <stop stop-color="#0781FA" offset="87%"></stop>
            <stop stop-color="#0066FF" offset="100%"></stop>
        </linearGradient>
        <polygon id="path-2" points="0.419129758 0.701609852 55.346905 0.701609852 55.346905 70.295858 0.419129758 70.295858"></polygon>
        <polygon id="path-4" points="0 0.701609852 54.9278575 0.701609852 54.9278575 70.295858 0 70.295858"></polygon>
    </defs>
    <g id="Page-1" stroke="none" stroke-width="1" fill="none" fill-rule="evenodd">
        <g id="Categories">
            <g id="category-mascotas" transform="translate(-47.000000, -5.000000)">
                <rect id="category-mascotas__bg" fill="url(#linearGradient-1)" fill-rule="nonzero" transform="translate(141.580000, 100.085000) rotate(-90.000000) translate(-141.580000, -100.085000) " x="42" y="-41" width="199.16" height="282.17"></rect>
                <g id="category-mascotas__face" transform="translate(82.000000, 42.000000)">
                    <g id="Group-3" transform="translate(64.615385, 44.124497)">
                        <mask id="mask-3" fill="white">
                            <use xlink:href="#path-2"></use>
                        </mask>
                        <g id="Clip-2"></g>
                        <path d="M1.43857988,65.1671716 C2.8608284,67.7674083 5.47952663,69.3586509 8.44189349,69.4253964 L8.61869822,69.4289467 C11.5299408,69.4949822 14.2814201,67.992497 15.7981065,65.5058698 L25.9299408,48.9103669 C26.4269822,48.0973491 27.3024852,47.6677633 28.2454438,47.6478817 C29.1983432,47.6706036 30.0404734,48.1839763 30.4970414,49.020426 L39.7888757,66.0263432 C41.1891124,68.5903669 43.8745562,70.224213 46.7957396,70.2902485 L46.9540828,70.2937988 C49.9164497,70.3605444 52.6040237,68.8885917 54.1427219,66.3558107 C55.6814201,63.8223195 55.7495858,60.7584142 54.323787,58.1588876 L36.8818935,26.352497 L36.8833136,26.0429112 L37.2660355,9.08172781 C37.367574,4.5636213 33.7753846,0.805278107 29.2579882,0.703739645 C24.7398817,0.601491124 20.9815385,4.19368047 20.8792899,8.71178698 L20.4908876,25.9648047 L20.3325444,26.232497 L1.62674556,56.9709586 C0.0859171598,59.5030296 0.0156213018,62.5669349 1.43857988,65.1671716" id="Fill-1" fill="#FFFFFF" mask="url(#mask-3)"></path>
                    </g>
                    <g id="Group-6" transform="translate(0.000000, 44.124497)">
                        <mask id="mask-5" fill="white">
                            <use xlink:href="#path-4"></use>
                        </mask>
                        <g id="Clip-5"></g>
                        <path d="M1.01943195,65.1671716 C2.44239053,67.7674083 5.0603787,69.3586509 8.02274556,69.4253964 L8.1995503,69.4289467 C11.1107929,69.4949822 13.8622722,67.992497 15.3789586,65.5058698 L25.511503,48.9103669 C26.0085444,48.0973491 26.8833373,47.6677633 27.8262959,47.6478817 C28.7791953,47.6706036 29.6213254,48.1839763 30.0778935,49.020426 L39.3697278,66.0263432 C40.7706746,68.5903669 43.4561183,70.224213 46.3765917,70.2902485 L46.5349349,70.2937988 C49.4973018,70.3605444 52.1848757,68.8885917 53.723574,66.3558107 C55.2622722,63.8223195 55.3304379,60.7584142 53.9053491,58.1588876 L36.4627456,26.352497 L36.4641657,26.0429112 L36.8468876,9.08172781 C36.948426,4.5636213 33.3562367,0.805278107 28.8388402,0.703739645 C24.3207337,0.601491124 20.5623905,4.19368047 20.460142,8.71178698 L20.0717396,25.9648047 L19.9133964,26.232497 L1.20759763,56.9709586 C-0.333230769,59.5030296 -0.403526627,62.5669349 1.01943195,65.1671716" id="Fill-4" fill="#FFFFFF" mask="url(#mask-5)"></path>
                    </g>
                    <path d="M19.752426,35.9839527 C21.4047337,38.5742485 24.2215385,40.1200473 27.2868639,40.1200473 C30.7114793,40.1200473 33.887574,38.0828876 35.3779882,34.9280947 C40.3228402,24.4731834 50.9431953,17.7169704 62.4333728,17.7169704 C73.8227219,17.7169704 84.3706509,24.4710533 89.3062722,34.9224142 C90.7966864,38.0793373 93.9734911,40.1200473 97.4172781,40.1200473 C100.479053,40.1200473 103.293728,38.5770888 104.947456,35.9917633 C106.578462,33.4426509 106.79858,30.288568 105.536805,27.5555503 C97.8063905,10.8159053 80.8743195,0.000284023669 62.4014201,0.000284023669 C43.9107692,0.000284023669 26.9431953,10.8102249 19.1751479,27.539929 C17.9062722,30.2736568 18.1221302,33.4298698 19.752426,35.9839527" id="Fill-7" fill="#FFFFFF"></path>
                </g>
            </g>
        </g>
    </g>
</svg>