<?xml version="1.0" encoding="UTF-8"?>
<svg width="190px" height="190px" viewBox="0 0 190 190" version="1.1" xmlns="http://www.w3.org/2000/svg" xmlns:xlink="http://www.w3.org/1999/xlink">
    <!-- Generator: Sketch 51.2 (57519) - http://www.bohemiancoding.com/sketch -->
    <title>category-gym</title>
    <desc>Created with Sketch.</desc>
    <defs>
        <linearGradient x1="50%" y1="-3.42346812%" x2="50%" y2="140.599639%" id="linearGradient-1">
            <stop stop-color="#2AFFE2" offset="0%"></stop>
            <stop stop-color="#28F6E4" offset="12%"></stop>
            <stop stop-color="#21DEE8" offset="32%"></stop>
            <stop stop-color="#16B7F0" offset="58%"></stop>
            <stop stop-color="#0781FA" offset="87%"></stop>
            <stop stop-color="#0066FF" offset="100%"></stop>
        </linearGradient>
    </defs>
    <g id="Page-1" stroke="none" stroke-width="1" fill="none" fill-rule="evenodd">
        <g id="Categories">
            <g id="category-gym" transform="translate(-47.000000, -5.000000)">
                <rect id="category-gym__bg" fill="url(#linearGradient-1)" fill-rule="nonzero" transform="translate(141.580000, 100.085000) rotate(-90.000000) translate(-141.580000, -100.085000) " x="42" y="-41" width="199.16" height="282.17"></rect>
                <g id="category-gym__face" transform="translate(83.000000, 46.000000)" fill="#FFFFFF">
                    <path d="M53.9084024,5.12918343 C52.4854438,2.52894675 49.8674556,0.937704142 46.9050888,0.87095858 L46.728284,0.866698225 C43.8170414,0.801372781 41.0655621,2.30385799 39.5488757,4.79048521 L29.4163314,21.3859882 C28.9192899,22.1990059 28.044497,22.6285917 27.1015385,22.6484734 C26.1486391,22.6257515 25.3065089,22.1116686 24.8499408,21.275929 L15.5581065,4.27001183 C14.1571598,1.70598817 11.472426,0.0721420118 8.5512426,0.00610650888 L8.39289941,0.00255621302 C5.43053254,-0.0641893491 2.74295858,1.40705325 1.20426036,3.94054438 C-0.33443787,6.4740355 -0.40260355,9.53794083 1.02319527,12.1367574 L18.4650888,43.943858 L18.4636686,44.2534438 L18.0809467,61.2146272 C17.9794083,65.7327337 21.5715976,69.4910769 26.0889941,69.5926154 C30.6071006,69.6948639 34.3654438,66.1019645 34.4676923,61.584568 L34.8560947,44.3308402 L35.0144379,44.063858 L53.7202367,13.3253964 C55.2610651,10.7933254 55.3313609,7.72942012 53.9084024,5.12918343" id="Fill-1"></path>
                    <path d="M118.942651,5.12918343 C117.520402,2.52894675 114.901704,0.937704142 111.939337,0.87095858 L111.762533,0.866698225 C108.85129,0.801372781 106.100521,2.30385799 104.583124,4.79048521 L94.4512899,21.3859882 C93.9542485,22.1990059 93.0787456,22.6285917 92.135787,22.6484734 C91.1828876,22.6257515 90.3407574,22.1116686 89.8841893,21.275929 L80.5930651,4.27001183 C79.1921183,1.70598817 76.5066746,0.0721420118 73.5854911,0.00610650888 L73.4271479,0.00255621302 C70.4647811,-0.0641893491 67.7772071,1.40705325 66.2385089,3.94054438 C64.6998107,6.4740355 64.631645,9.53794083 66.0574438,12.1367574 L83.5000473,43.943858 L83.4986272,44.2534438 L83.1159053,61.2146272 C83.0136568,65.7327337 86.6058462,69.4910769 91.1232426,69.5926154 C95.6413491,69.6948639 99.4004024,66.1019645 99.5019408,61.584568 L99.8910533,44.3308402 L100.049396,44.063858 L118.754485,13.3253964 C120.295314,10.7933254 120.365609,7.72942012 118.942651,5.12918343" id="Fill-3"></path>
                    <path d="M100.209941,78.4365444 C98.5576331,75.8469586 95.7408284,74.3011598 92.675503,74.3011598 C89.2508876,74.3011598 86.0747929,76.3383195 84.5843787,79.4924024 C79.6388166,89.9473136 69.0191716,96.7035266 57.5289941,96.7035266 C46.139645,96.7035266 35.591716,89.9494438 30.6560947,79.4987929 C29.1656805,76.3411598 25.9888757,74.3011598 22.5443787,74.3011598 C19.4833136,74.3011598 16.6686391,75.8434083 15.0149112,78.4287337 C13.3839053,80.9778462 13.163787,84.1326391 14.4255621,86.8649467 C22.1559763,103.604592 39.0880473,114.420213 57.5609467,114.420213 C76.0515976,114.420213 93.0191716,103.610272 100.787219,86.880568 C102.056095,84.1468402 101.840237,80.9906272 100.209941,78.4365444" id="Fill-5"></path>
                </g>
            </g>
        </g>
    </g>
</svg>