<?xml version="1.0" encoding="UTF-8"?>
<svg width="170px" height="150px" viewBox="0 0 170 150" version="1.1" xmlns="http://www.w3.org/2000/svg" xmlns:xlink="http://www.w3.org/1999/xlink">
    <!-- Generator: Sketch 51.2 (57519) - http://www.bohemiancoding.com/sketch -->
    <title>category-tecnologia</title>
    <desc>Created with Sketch.</desc>
    <defs>
        <polygon id="path-1" points="0.145716396 0.9781 131.788798 0.9781 131.788798 61 0.145716396 61"></polygon>
        <polygon id="path-3" points="0.6991 0.853 93.258 0.853 93.258 46.7138258 0.6991 46.7138258"></polygon>
        <polygon id="path-5" points="0 0.862874212 92.5608002 0.862874212 92.5608002 46.7295362 0 46.7295362"></polygon>
    </defs>
    <g id="Page-1" stroke="none" stroke-width="1" fill="none" fill-rule="evenodd">
        <g id="Categories" transform="translate(-10.000000, -21.000000)">
            <g id="category-tecnologia" transform="translate(10.000000, 20.000000)">
                <g id="Group-3" transform="translate(16.000000, 89.147000)">
                    <mask id="mask-2" fill="white">
                        <use xlink:href="#path-1"></use>
                    </mask>
                    <g id="Clip-2"></g>
                    <path d="M129.7,7.1651 C127.228,3.2901 123.013,0.9781 118.428,0.9781 C113.304,0.9781 108.553,4.0261 106.323,8.7451 C98.925,24.3871 83.036,34.4941 65.845,34.4941 C48.806,34.4941 33.026,24.3901 25.642,8.7541 C23.411,4.0301 18.659,0.9781 13.506,0.9781 C8.926,0.9781 4.715,3.2861 2.242,7.1531 C-0.199,10.9671 -0.528,15.6861 1.359,19.7751 C12.925,44.8181 38.257,61.0001 65.894,61.0001 C93.557,61.0001 118.941,44.8271 130.564,19.7981 C132.462,15.7081 132.139,10.9861 129.7,7.1651" id="Fill-1" fill="#FFFFFF" mask="url(#mask-2)"></path>
                </g>
                <g id="Group-6" transform="translate(76.000000, 0.147000)">
                    <mask id="mask-4" fill="white">
                        <use xlink:href="#path-3"></use>
                    </mask>
                    <g id="Clip-5"></g>
                    <path d="M93.2581,23.711 C93.2581,14.621 87.9621,6.723 80.2531,2.946 C75.9181,0.822 70.9581,0.37 66.2301,1.338 C51.4251,4.369 24.8681,9.941 11.1501,12.073 C5.3411,12.977 0.6991,17.735 0.6991,23.743 C0.6991,29.914 5.4661,34.966 11.4451,35.509 C12.1231,35.57 50.5531,43.129 66.3151,46.244 C70.5821,47.087 75.0541,46.839 79.0611,45.146 C87.4111,41.618 93.2581,33.358 93.2581,23.711" id="Fill-4" fill="#FFFFFF" mask="url(#mask-4)"></path>
                </g>
                <g id="Group-9" transform="translate(0.000000, 0.147000)">
                    <mask id="mask-6" fill="white">
                        <use xlink:href="#path-5"></use>
                    </mask>
                    <g id="Clip-8"></g>
                    <path d="M-0.0002,23.8687 C0.0008,32.9597 5.2978,40.8587 13.0078,44.6367 C17.3428,46.7597 22.3028,47.2127 27.0318,46.2437 C41.8358,43.2127 68.3928,37.6407 82.1108,35.5077 C87.9188,34.6037 92.5618,29.8457 92.5608,23.8367 C92.5598,17.6647 87.7918,12.6117 81.8128,12.0697 C81.1348,12.0077 42.7028,4.4477 26.9408,1.3327 C22.6728,0.4897 18.2008,0.7377 14.1938,2.4307 C5.8448,5.9587 -0.0012,14.2197 -0.0002,23.8687" id="Fill-7" fill="#FFFFFF" mask="url(#mask-6)"></path>
                </g>
            </g>
        </g>
    </g>
</svg>