<?xml version="1.0" encoding="UTF-8"?>
<svg width="179px" height="165px" viewBox="0 0 179 165" version="1.1" xmlns="http://www.w3.org/2000/svg" xmlns:xlink="http://www.w3.org/1999/xlink">
    <!-- Generator: Sketch 51.2 (57519) - http://www.bohemiancoding.com/sketch -->
    <title>category-entretenimiento</title>
    <desc>Created with Sketch.</desc>
    <defs>
        <polygon id="path-1" points="0.0001 0.299 91.6281 0.299 91.6281 92.0494 0.0001 92.0494"></polygon>
        <polygon id="path-3" points="0.2083 0.299 72.63 0.299 72.63 92.0501748 0.2083 92.0501748"></polygon>
    </defs>
    <g id="Page-1" stroke="none" stroke-width="1" fill="none" fill-rule="evenodd">
        <g id="Categories" transform="translate(-6.000000, -13.000000)">
            <g id="category-entretenimiento" transform="translate(6.000000, 12.000000)">
                <path d="M153.1164,115.0238 C150.7894,111.3768 146.8224,109.1998 142.5054,109.1998 C137.6824,109.1998 133.2094,112.0688 131.1104,116.5108 C124.1454,131.2348 109.1894,140.7498 93.0074,140.7498 C76.9674,140.7498 62.1124,131.2378 55.1614,116.5198 C53.0624,112.0728 48.5884,109.1998 43.7374,109.1998 C39.4264,109.1998 35.4624,111.3718 33.1334,115.0128 C30.8364,118.6028 30.5264,123.0458 32.3034,126.8938 C43.1904,150.4688 67.0364,165.7008 93.0524,165.7008 C119.0934,165.7008 142.9894,150.4768 153.9294,126.9158 C155.7164,123.0658 155.4124,118.6208 153.1164,115.0238" id="Fill-1" fill="#FFFFFF"></path>
                <g id="Group-5" transform="translate(0.000000, 0.701000)">
                    <mask id="mask-2" fill="white">
                        <use xlink:href="#path-1"></use>
                    </mask>
                    <g id="Clip-4"></g>
                    <path d="M45.7531,24.2774 C33.7641,24.2774 23.9771,34.0634 23.9771,46.1754 C23.9771,58.1634 33.7641,68.0714 45.7531,68.0714 C57.8641,68.0714 67.6511,58.1634 67.6511,46.1754 C67.6511,34.0634 57.8641,24.2774 45.7531,24.2774 M45.7531,0.2984 C71.0761,0.2984 91.6281,20.9734 91.6281,46.2974 C91.6281,71.6204 71.0761,92.0494 45.7531,92.0494 C20.4291,92.0494 0.0001,71.6204 0.0001,46.2974 C0.0001,20.9734 20.4291,0.2984 45.7531,0.2984" id="Fill-3" fill="#FFFFFF" mask="url(#mask-2)"></path>
                </g>
                <g id="Group-8" transform="translate(106.000000, 0.701000)">
                    <mask id="mask-4" fill="white">
                        <use xlink:href="#path-3"></use>
                    </mask>
                    <g id="Clip-7"></g>
                    <path d="M60.5193,0.2989 C53.8303,0.2989 48.4083,5.7209 48.4083,12.4099 L48.4083,54.9979 C48.4083,61.3999 43.5943,67.0239 37.2063,67.4349 C30.2463,67.8819 24.4303,62.3379 24.4303,55.4719 L24.4303,12.4099 C24.4303,5.7209 19.0083,0.2989 12.3193,0.2989 C5.6303,0.2989 0.2083,5.7209 0.2083,12.4099 L0.2083,54.9899 C0.2083,75.2239 16.7653,92.3609 36.9973,92.0459 C56.6733,91.7389 72.6303,75.8289 72.6303,55.8389 L72.6303,12.4099 C72.6303,5.7209 67.2083,0.2989 60.5193,0.2989" id="Fill-6" fill="#FFFFFF" mask="url(#mask-4)"></path>
                </g>
            </g>
        </g>
    </g>
</svg>