<?xml version="1.0" encoding="UTF-8"?>
<svg width="190px" height="190px" viewBox="0 0 190 190" version="1.1" xmlns="http://www.w3.org/2000/svg" xmlns:xlink="http://www.w3.org/1999/xlink">
    <!-- Generator: Sketch 51.2 (57519) - http://www.bohemiancoding.com/sketch -->
    <title>category-maquillaje</title>
    <desc>Created with Sketch.</desc>
    <defs>
        <linearGradient x1="50%" y1="-4.88712478%" x2="50%" y2="121.653613%" id="linearGradient-1">
            <stop stop-color="#4191F1" offset="13%"></stop>
            <stop stop-color="#5F58E5" offset="49%"></stop>
            <stop stop-color="#812CC9" offset="86%"></stop>
        </linearGradient>
        <polygon id="path-2" points="0 0.3024 30.3162811 0.3024 30.3162811 30.5352649 0 30.5352649"></polygon>
        <polygon id="path-4" points="0.555384494 0.634443243 85.9451664 0.634443243 85.9451664 39.5675676 0.555384494 39.5675676"></polygon>
    </defs>
    <g id="Page-1" stroke="none" stroke-width="1" fill="none" fill-rule="evenodd">
        <g id="Categories">
            <g id="category-maquillaje" transform="translate(-47.000000, -5.000000)">
                <rect id="category-maquillaje__bg" fill="url(#linearGradient-1)" fill-rule="nonzero" transform="translate(141.580000, 100.085000) rotate(-90.000000) translate(-141.580000, -100.085000) " x="42" y="-41" width="199.16" height="282.17"></rect>
                <g id="category-maquillaje__face" transform="translate(91.000000, 56.000000)">
                    <g id="Group-3" transform="translate(0.000000, 0.346378)">
                        <mask id="mask-3" fill="white">
                            <use xlink:href="#path-2"></use>
                        </mask>
                        <g id="Clip-2"></g>
                        <path d="M30.3162811,15.3763459 C30.3162811,7.07688649 23.5417946,0.3024 15.1573622,0.3024 C6.85855135,0.3024 -0.000259459459,7.07688649 -0.000259459459,15.3763459 C-0.000259459459,23.7601297 6.85855135,30.5352649 15.1573622,30.5352649 C23.5417946,30.5352649 30.3162811,23.7601297 30.3162811,15.3763459" id="Fill-1" fill="#FFFFFF" mask="url(#mask-3)"></path>
                    </g>
                    <path d="M119.566638,15.7264865 C119.566638,9.83027027 116.131395,4.70724324 111.130962,2.2572973 C108.31907,0.879567568 105.101773,0.586378378 102.034314,1.21427027 C92.4317189,3.18032432 75.2055568,6.79459459 66.3067459,8.17751351 C62.5393946,8.76389189 59.5277189,11.8501622 59.5277189,15.7472432 C59.5277189,19.7500541 62.6204757,23.027027 66.4987459,23.3792432 C66.9385297,23.4188108 91.8660973,28.3219459 102.090097,30.3424865 C104.857881,30.8892973 107.758638,30.7284324 110.357773,29.6302703 C115.773989,27.3418378 119.566638,21.984 119.566638,15.7264865" id="Fill-4" fill="#FFFFFF"></path>
                    <g id="Group-8" transform="translate(3.891892, 58.076108)">
                        <mask id="mask-5" fill="white">
                            <use xlink:href="#path-4"></use>
                        </mask>
                        <g id="Clip-7"></g>
                        <path d="M84.5902703,4.64763243 C82.9868108,2.13411892 80.2534054,0.634443243 77.2787027,0.634443243 C73.9556757,0.634443243 70.8732973,2.61152432 69.4268108,5.6724973 C64.6281081,15.8186595 54.3217297,22.3745514 43.1714595,22.3745514 C32.1184865,22.3745514 21.8828108,15.8206054 17.0931892,5.67833514 C15.6467027,2.61411892 12.5636757,0.634443243 9.22118919,0.634443243 C6.25102703,0.634443243 3.51891892,2.13152432 1.91481081,4.63984865 C0.332108108,7.11379459 0.118054054,10.1747676 1.3427027,12.8270919 C8.84432432,29.0712 25.2758919,39.5676324 43.2025946,39.5676324 C61.1461622,39.5676324 77.6121081,29.0770378 85.1507027,12.8420108 C86.3818378,10.1890378 86.1723243,7.12611892 84.5902703,4.64763243" id="Fill-6" fill="#FFFFFF" mask="url(#mask-5)"></path>
                    </g>
                </g>
            </g>
        </g>
    </g>
</svg>