<?xml version="1.0" encoding="UTF-8"?>
<svg width="213px" height="104px" viewBox="0 0 213 104" version="1.1" xmlns="http://www.w3.org/2000/svg" xmlns:xlink="http://www.w3.org/1999/xlink">
    <!-- Generator: Sketch 51.2 (57519) - http://www.bohemiancoding.com/sketch -->
    <title>Group 26</title>
    <desc>Created with Sketch.</desc>
    <defs>
        <polygon id="path-1" points="0.4364 0.300158512 21.989 0.300158512 21.989 47.5712044 0.4364 47.5712044"></polygon>
    </defs>
    <g id="Page-1" stroke="none" stroke-width="1" fill="none" fill-rule="evenodd">
        <g id="Group" transform="translate(-10.000000, -65.000000)">
            <g id="Group-26" transform="translate(116.000000, 117.000000) rotate(-270.000000) translate(-116.000000, -117.000000) translate(64.000000, 10.000000)">
                <g id="Group-25" transform="translate(0.000000, 0.581000)">
                    <path d="M50.2706,64.0054 C50.2706,68.6004 54.0216,72.3504 58.6626,72.3504 C63.2566,72.3504 67.0536,68.6004 67.0536,64.0054 C67.0536,59.3634 63.2566,55.6134 58.6626,55.6134 C54.0216,55.6134 50.2706,59.3634 50.2706,64.0054" id="Fill-4" fill="#000000"></path>
                    <path d="M60.4659,156.5699 C55.6189,154.6889 50.1459,148.5769 49.4479,145.3929 C49.0109,143.3999 51.8689,144.8039 51.8689,144.8039 C55.2569,146.5159 58.7029,150.9219 58.7029,150.9219 C60.3839,153.0069 61.1579,154.4499 61.5099,155.3819 C61.7819,156.1039 61.1359,156.8549 60.4659,156.5699 M70.1799,132.3539 C72.3999,134.0669 70.7969,135.4639 69.9369,135.4239 C69.2409,135.3929 68.0479,134.5199 66.4439,133.6899 L48.3599,122.3829 C48.2409,122.3139 47.8349,122.1169 47.8159,122.1219 C45.8419,121.3149 43.5279,122.0619 42.4259,123.9579 C41.2249,126.0319 41.9269,128.6879 44.0009,129.8909 L48.6539,132.5849 C50.4489,133.8089 53.5929,135.9559 55.9379,137.4799 C56.2459,137.7799 56.6079,138.0809 57.0259,138.3829 C58.2369,139.3209 59.5369,140.3679 60.9249,141.5209 C62.3139,142.6739 63.6619,143.8279 64.9719,144.9809 C66.2819,146.1349 67.4749,147.2689 68.5499,148.3819 C69.6259,149.4979 70.4179,150.4859 70.9249,151.3439 C71.5519,152.2059 72.0009,153.0469 72.2739,153.8669 C72.5489,154.6879 72.6169,155.3529 72.4799,155.8609 C72.3429,156.3699 71.9429,156.7029 71.2769,156.8589 C71.1989,156.8769 71.1159,156.8919 71.0289,156.9029 C69.5759,157.0949 68.1609,156.3169 67.4689,155.0259 C66.6909,153.5789 65.7119,152.0779 64.5319,150.5239 C62.9299,148.4129 61.1589,146.4189 59.2239,144.5419 C57.2879,142.6649 55.3229,141.0119 53.3289,139.5849 C51.3349,138.1589 49.5279,137.2099 47.9039,136.7409 C46.2819,136.2709 44.9519,136.3989 43.9159,137.1219 C42.8799,137.8449 42.3619,139.3799 42.3619,141.7259 C42.3619,143.0549 42.7529,144.5419 43.5339,146.1829 C50.6929,163.4239 69.9099,166.9649 72.3329,166.8299 C74.7699,167.0829 84.2959,165.6029 78.2569,152.9869 C77.1939,151.1089 75.8249,149.2549 74.1529,147.4239 C74.1059,147.3739 73.9849,147.2469 73.8269,147.0829 C73.3699,146.6079 73.7119,145.8159 74.3709,145.8239 C74.8909,145.8299 75.3449,145.8229 75.4999,145.8019 C77.4559,145.5479 78.7849,144.5019 79.4879,142.6649 C79.8399,141.8429 79.9669,140.9729 79.8689,140.0539 C79.8299,139.6809 79.6529,139.0819 79.4459,138.4849 C79.2389,137.8829 79.9029,137.3559 80.4429,137.6949 L80.4449,137.7059 C82.5449,138.9499 84.8369,141.6379 86.1609,143.2269 C93.3229,151.8139 93.5959,161.9189 87.7369,171.3999 L87.5439,171.7419 C86.1079,174.2339 86.9639,177.4189 89.4559,178.8559 C91.9489,180.2929 95.1339,179.4359 96.5699,176.9439 C96.6599,176.7889 96.7489,176.6319 96.8389,176.4709 C103.8049,163.9519 102.6139,148.5629 93.8049,137.2659 C89.5509,131.8109 85.1909,129.3019 77.7219,125.6459 L77.7459,125.7529 L53.6489,110.6039 C53.5359,110.5329 51.3909,109.1739 49.3649,109.2129 C47.1119,109.3959 45.7869,111.3709 45.3559,112.6389 C44.9709,113.8619 45.5729,115.0629 46.5209,116.1089 C48.2909,118.0619 69.4449,131.5889 70.1799,132.3539" id="Fill-6" fill="#000000"></path>
                    <path d="M0.8624,64.0035 C0.8624,67.2675 2.7644,70.1035 5.5324,71.4595 C7.0894,72.2225 8.8704,72.3845 10.5684,72.0365 C15.8844,70.9485 25.4214,68.9475 30.3464,68.1825 C32.4324,67.8575 34.0994,66.1495 34.0994,63.9915 C34.0994,61.7755 32.3874,59.9615 30.2404,59.7675 C29.9974,59.7445 16.1974,57.0305 10.5374,55.9115 C9.0054,55.6085 7.3994,55.6975 5.9614,56.3065 C2.9624,57.5725 0.8624,60.5385 0.8624,64.0035" id="Fill-8" fill="#000000"></path>
                    <path d="M44.4581,85.0035 C43.0791,85.7985 42.2561,87.2245 42.2561,88.8165 L42.2561,88.9115 C42.2561,90.4765 43.0971,91.9355 44.4501,92.7195 L53.4861,97.9605 C53.9291,98.2175 54.1701,98.6825 54.1921,99.1895 C54.1911,99.7005 53.9261,100.1595 53.4821,100.4145 L44.4611,105.6105 C43.1011,106.3945 42.2561,107.8565 42.2561,109.4265 L42.2561,109.5115 C42.2561,111.1035 43.0791,112.5285 44.4581,113.3245 C45.8371,114.1195 47.4831,114.1195 48.8621,113.3225 L65.7341,103.5685 L65.9001,103.5655 L75.0151,103.5655 C77.4421,103.5655 79.4181,101.5915 79.4181,99.1635 C79.4181,96.7355 77.4421,94.7615 75.0151,94.7615 L65.7441,94.7615 L65.5981,94.6795 L48.8621,85.0055 C47.4831,84.2085 45.8371,84.2075 44.4581,85.0035" id="Fill-10" fill="#FFFFFF"></path>
                    <g id="Group-14" transform="translate(82.000000, 22.000000)">
                        <mask id="mask-2" fill="white">
                            <use xlink:href="#path-1"></use>
                        </mask>
                        <g id="Clip-13"></g>
                        <path d="M21.9894,23.9625 C21.9894,14.0285 16.1814,4.9135 7.1944,0.7395 C5.7254,0.0585 4.0304,0.1745 2.6584,1.0505 C1.2664,1.9385 0.4364,3.4515 0.4364,5.0985 C0.4364,6.9385 1.5304,8.6445 3.2254,9.4445 C8.8424,12.1015 12.4714,17.8075 12.4714,23.9805 C12.4714,30.0985 8.8434,35.7655 3.2284,38.4165 C1.5324,39.2175 0.4364,40.9235 0.4364,42.7745 C0.4364,44.4185 1.2644,45.9315 2.6544,46.8185 C4.0234,47.6945 5.7184,47.8135 7.1854,47.1355 C16.1784,42.9835 21.9894,33.8865 21.9894,23.9625" id="Fill-12" fill="#FFFFFF" mask="url(#mask-2)"></path>
                    </g>
                    <path d="M50.3097,64.0054 C50.3097,68.5784 54.0417,72.3124 58.6627,72.3124 C63.2357,72.3124 67.0157,68.5784 67.0157,64.0054 C67.0157,59.3854 63.2357,55.6514 58.6627,55.6514 C54.0417,55.6514 50.3097,59.3854 50.3097,64.0054 M41.1627,64.0054 C41.1627,54.3454 49.0487,46.5054 58.7087,46.5054 C68.3697,46.5054 76.1627,54.3454 76.1627,64.0054 C76.1627,73.6654 68.3697,81.4584 58.7087,81.4584 C49.0487,81.4584 41.1627,73.6654 41.1627,64.0054" id="Fill-15" fill="#FFFFFF"></path>
                    <path d="M41.1622,17.938 C41.1622,20.49 43.2302,22.558 45.7822,22.558 L62.0282,22.558 C64.4702,22.558 66.6152,24.394 66.7722,26.831 C66.9432,29.486 64.8282,31.705 62.2092,31.705 L45.7822,31.705 C43.2302,31.705 41.1622,33.773 41.1622,36.324 C41.1622,38.875 43.2302,40.944 45.7822,40.944 L62.0252,40.944 C69.7432,40.944 76.2802,34.628 76.1602,26.911 C76.0432,19.405 69.9742,13.318 62.3492,13.318 L45.7822,13.318 C43.2312,13.318 41.1622,15.386 41.1622,17.938" id="Fill-17" fill="#FFFFFF"></path>
                    <path d="M31.3614,119.0728 C29.9474,120.0348 28.9704,122.6778 28.6764,123.4038 C18.8874,147.6038 35.0474,163.1108 44.7894,169.7978 C45.5774,170.4748 46.3724,171.1728 47.1854,171.7608 C47.7744,172.2588 48.3144,172.7088 48.6544,172.9558 C50.2454,174.5108 51.1624,176.6508 51.1284,178.9148 C51.1284,178.9738 51.1294,179.0228 51.1294,179.0838 C51.0814,181.0888 48.8104,182.2228 47.1744,181.0628 C41.1634,176.8008 35.8824,172.9448 31.3324,169.4978 C28.4824,167.3378 25.9904,165.3878 23.8554,163.6498 C21.2964,161.5648 17.4654,163.4078 17.4814,166.7098 L17.4814,166.7968 C17.5014,169.6898 17.8464,172.7358 18.5164,175.9338 C19.1864,179.1338 20.1444,182.3518 21.3894,185.5898 C22.6344,188.8268 24.0434,191.8628 25.6134,194.6978 C27.1844,197.5338 28.8804,200.0238 30.6994,202.1688 C32.5194,204.3148 34.3304,205.9048 36.1314,206.9388 C37.8544,207.8968 39.3684,208.5488 40.6714,208.8928 C41.9734,209.2378 43.0944,209.3248 44.0324,209.1518 C44.9714,208.9788 45.7284,208.5868 46.3024,207.9728 C46.8784,207.3608 47.2994,206.5748 47.5674,205.6178 C47.6444,205.1198 47.7024,204.5158 47.7394,203.8068 C47.7404,203.7998 47.7404,203.7928 47.7404,203.7858 C47.8104,202.4968 47.1144,201.2778 45.9664,200.6858 C44.3504,199.8498 42.7284,198.7938 41.1014,197.5138 C38.8604,195.7518 36.8104,193.8368 34.9524,191.7668 C33.0944,189.6988 31.5434,187.5628 30.2974,185.3588 L30.2594,185.2938 C29.3474,183.6738 31.3294,181.9798 32.7854,183.1368 C33.9004,184.0228 35.0534,184.9168 36.2464,185.8188 C39.1574,188.0218 42.1564,190.1968 45.2394,192.3418 C48.3244,194.4878 51.4094,196.5558 54.4924,198.5488 C57.5774,200.5418 60.4894,202.3518 63.2274,203.9788 C65.9674,205.6078 68.4484,206.9968 70.6704,208.1458 C72.8924,209.2958 74.6744,210.0998 76.0144,210.5598 C78.3914,211.5178 80.3254,212.0738 81.8194,212.2268 C83.3144,212.3798 84.5584,212.2648 85.5544,211.8818 C86.5504,211.4998 87.3844,210.8948 88.0544,210.0708 C88.7244,209.2478 89.4244,208.2998 90.1524,207.2268 C90.7334,206.1528 90.1714,204.8258 88.9984,204.4858 C86.9254,203.8848 84.8484,203.1508 82.7674,202.2838 C79.9144,201.0968 77.0884,199.7748 74.2914,198.3188 C71.4954,196.8628 68.7264,195.2538 65.9864,193.4908 C64.4734,192.5178 62.9864,191.5318 61.5244,190.5348 C59.1584,188.9198 57.7874,186.2028 57.8534,183.3378 L57.8544,183.2898 L57.8554,183.2428 C57.9084,181.0878 60.2744,179.8018 62.1084,180.9328 C62.3554,181.0868 62.6044,181.2398 62.8544,181.3938 C64.5024,182.4088 66.1694,183.4048 67.8534,184.3828 C69.5414,185.3588 71.2074,186.2888 72.8534,187.1698 C74.5024,188.0518 76.1114,188.8168 77.6814,189.4688 C78.6014,189.7748 79.6264,189.9378 80.7564,189.9568 C81.8854,189.9758 82.9684,189.7748 84.0034,189.3528 C85.0374,188.9318 86.0144,188.2528 86.9344,187.3128 C87.4464,186.7908 87.8924,186.1648 88.2734,185.4328 C88.7904,184.4448 88.3384,183.2208 87.3024,182.8078 C84.0764,181.5198 80.7064,179.9858 77.1924,178.2048 C73.0374,176.0968 68.8594,173.7888 64.6654,171.2788 C60.4684,168.7698 56.3704,166.1738 52.3664,163.4918 C51.6734,163.0268 50.9984,162.5688 50.3204,162.1108 C45.5974,158.3308 41.3154,153.7048 38.3574,147.9738 C36.5844,144.5398 34.2514,134.1358 37.6754,127.4648 C38.5984,125.7378 38.9404,123.7448 38.5774,121.8208 C38.5584,121.7208 38.5384,121.6208 38.5154,121.5188 C38.2324,120.2428 37.3734,119.2678 36.2734,118.6998 C34.6454,117.8588 32.7704,118.0868 31.3614,119.0728" id="Fill-19" fill="#000000"></path>
                    <path d="M41.2706,4.1451 C41.2706,6.2481 42.9746,7.9521 45.0766,7.9521 C47.1786,7.9521 48.8816,6.2481 48.8816,4.1451 C48.8816,2.0431 47.1786,0.3391 45.0766,0.3391 C42.9746,0.3391 41.2706,2.0431 41.2706,4.1451 M41.8426,4.1451 C41.8426,2.3621 43.2926,0.9121 45.0766,0.9121 C46.8596,0.9121 48.3106,2.3621 48.3106,4.1451 C48.3106,5.9291 46.8596,7.3791 45.0766,7.3791 C43.2926,7.3791 41.8426,5.9291 41.8426,4.1451" id="Fill-21" fill="#000000"></path>
                    <path d="M44.9357,4.0943 C44.9357,3.6543 44.6737,3.3793 44.2207,3.3793 C43.7867,3.3793 43.5177,3.5653 43.5177,4.2093 L43.5177,4.8353 L44.9357,4.8353 L44.9357,4.0943 Z M42.8097,5.6593 L42.8097,4.1973 C42.8097,3.7043 42.8477,3.4823 42.9367,3.2833 C43.1417,2.8303 43.5757,2.5423 44.1757,2.5423 C44.7187,2.5423 45.2237,2.8303 45.4147,3.3093 L45.4277,3.3093 C45.4277,3.3093 45.4927,3.2453 45.6517,3.1563 L47.3437,2.2233 L47.3437,3.1433 L45.6517,4.0433 L45.6517,4.8353 L47.3437,4.8353 L47.3437,5.6593 L42.8097,5.6593 Z" id="Fill-23" fill="#000000"></path>
                </g>
            </g>
        </g>
    </g>
</svg>