<?xml version="1.0" encoding="UTF-8"?>
<svg width="232px" height="121px" viewBox="0 0 232 121" version="1.1" xmlns="http://www.w3.org/2000/svg" xmlns:xlink="http://www.w3.org/1999/xlink">
    <!-- Generator: Sketch 51.2 (57519) - http://www.bohemiancoding.com/sketch -->
    <title>hey-you__001</title>
    <desc>Created with Sketch.</desc>
    <defs>
        <polygon id="path-1" points="0.162899628 0.881 19.3447453 0.881 19.3447453 39.5937 0.162899628 39.5937"></polygon>
        <polygon id="path-3" points="0.237519077 0.8953 55.2981504 0.8953 55.2981504 26 0.237519077 26"></polygon>
        <polygon id="path-5" points="0.5827 0.8207 32.76 0.8207 32.76 41.5875739 0.5827 41.5875739"></polygon>
        <polygon id="path-7" points="0 0.237633014 109.616289 0.237633014 109.616289 85.1523777 0 85.1523777"></polygon>
    </defs>
    <g id="Page-1" stroke="none" stroke-width="1" fill="none" fill-rule="evenodd">
        <g id="hey-you__001" transform="translate(0.000000, -1.000000)">
            <path d="M172.7206,58.5491 C167.3696,58.5491 163.0006,62.9171 163.0006,68.3231 C163.0006,73.6741 167.3696,78.0971 172.7206,78.0971 C178.1266,78.0971 182.4946,73.6741 182.4946,68.3231 C182.4946,62.9171 178.1266,58.5491 172.7206,58.5491" id="Fill-1" fill="#000000"></path>
            <path d="M64.9042,70.4245 C67.0952,64.7785 74.2152,58.4035 77.9232,57.5905 C80.2442,57.0815 78.6082,60.4115 78.6082,60.4115 C76.6142,64.3575 71.4832,68.3705 71.4832,68.3705 C69.0532,70.3285 67.3732,71.2305 66.2882,71.6395 C65.4472,71.9575 64.5722,71.2045 64.9042,70.4245 M93.1102,81.7385 C91.1152,84.3235 89.4882,82.4565 89.5342,81.4545 C89.5702,80.6455 90.5882,79.2555 91.5542,77.3855 L104.7232,56.3225 C104.8042,56.1845 105.0342,55.7125 105.0292,55.6885 C105.9672,53.3895 105.0982,50.6945 102.8892,49.4115 C100.4742,48.0115 97.3812,48.8305 95.9782,51.2455 L92.8412,56.6655 C91.4152,58.7565 88.9152,62.4185 87.1382,65.1495 C86.7902,65.5085 86.4392,65.9305 86.0882,66.4165 C84.9952,67.8275 83.7762,69.3425 82.4322,70.9585 C81.0892,72.5755 79.7452,74.1475 78.4022,75.6725 C77.0582,77.1985 75.7382,78.5885 74.4402,79.8405 C73.1412,81.0935 71.9912,82.0155 70.9902,82.6065 C69.9872,83.3365 69.0082,83.8605 68.0522,84.1775 C67.0952,84.4975 66.3212,84.5775 65.7302,84.4175 C65.1372,84.2575 64.7502,83.7915 64.5682,83.0165 C64.5472,82.9255 64.5292,82.8295 64.5152,82.7265 C64.2932,81.0355 65.1992,79.3865 66.7022,78.5805 C68.3882,77.6745 70.1362,76.5345 71.9462,75.1605 C74.4062,73.2935 76.7282,71.2325 78.9152,68.9775 C81.1012,66.7225 83.0242,64.4345 84.6872,62.1115 C86.3492,59.7885 87.4542,57.6825 88.0012,55.7925 C88.5482,53.9035 88.3992,52.3545 87.5572,51.1475 C86.7142,49.9405 84.9262,49.3365 82.1942,49.3365 C80.6452,49.3365 78.9152,49.7925 77.0022,50.7025 C56.9202,59.0405 52.7972,81.4245 52.9542,84.2465 C52.6592,87.0845 54.3822,98.1805 69.0772,91.1465 C71.2642,89.9075 73.4252,88.3145 75.5562,86.3645 C75.6162,86.3115 75.7632,86.1705 75.9542,85.9875 C76.5082,85.4545 77.4292,85.8525 77.4212,86.6205 C77.4142,87.2255 77.4222,87.7545 77.4452,87.9355 C77.7432,90.2135 78.9612,91.7615 81.1002,92.5815 C82.0562,92.9905 83.0702,93.1385 84.1402,93.0245 C84.5752,92.9785 85.2732,92.7715 85.9682,92.5315 C86.6702,92.2905 87.2842,93.0645 86.8892,93.6925 L86.8772,93.6945 C85.4272,96.1415 82.2962,98.8105 80.4462,100.3535 C70.4432,108.6955 58.6752,109.0135 47.6302,102.1885 L47.2332,101.9635 C44.3302,100.2905 40.6202,101.2885 38.9462,104.1915 C37.2722,107.0945 38.2692,110.8045 41.1732,112.4775 C41.3542,112.5825 41.5362,112.6855 41.7232,112.7895 C56.3052,120.9045 74.2302,119.5165 87.3892,109.2565 C93.7422,104.3015 96.6642,99.2225 100.9242,90.5225 L100.8002,90.5505 L118.4442,62.4835 C118.5262,62.3525 120.1102,59.8535 120.0652,57.4945 C119.8502,54.8705 117.5502,53.3255 116.0732,52.8235 C114.6492,52.3755 113.2502,53.0775 112.0322,54.1815 C109.7572,56.2425 94.0022,80.8825 93.1102,81.7385" id="Fill-3" fill="#000000"></path>
            <g id="Group-7" transform="translate(163.000000, 0.119000)">
                <mask id="mask-2" fill="white">
                    <use xlink:href="#path-1"></use>
                </mask>
                <g id="Clip-6"></g>
                <path d="M9.7235,0.8807 C5.9215,0.8807 2.6185,3.0957 1.0375,6.3197 C0.1505,8.1327 -0.0395,10.2077 0.3665,12.1857 C1.6335,18.3777 3.9635,29.4847 4.8565,35.2227 C5.2345,37.6517 7.2235,39.5937 9.7375,39.5937 C12.3185,39.5937 14.4315,37.5997 14.6585,35.0997 C14.6835,34.8157 17.8455,18.7417 19.1485,12.1497 C19.5005,10.3647 19.3975,8.4947 18.6885,6.8187 C17.2135,3.3257 13.7585,0.8807 9.7235,0.8807" id="Fill-5" fill="#000000" mask="url(#mask-2)"></path>
            </g>
            <path d="M148.2635,51.7785 C147.3365,50.1725 145.6755,49.2135 143.8225,49.2135 L143.7105,49.2135 C141.8885,49.2135 140.1895,50.1925 139.2755,51.7695 L133.1705,62.2945 C132.8705,62.8095 132.3295,63.0905 131.7405,63.1165 C131.1435,63.1155 130.6105,62.8065 130.3125,62.2895 L124.2595,51.7815 C123.3475,50.1975 121.6445,49.2135 119.8165,49.2135 L119.7165,49.2135 C117.8625,49.2135 116.2015,50.1725 115.2755,51.7785 C114.3485,53.3845 114.3495,55.3025 115.2775,56.9085 L126.6385,76.5605 L126.6415,76.7545 L126.6415,87.3705 C126.6415,90.1975 128.9415,92.4985 131.7695,92.4985 C134.5965,92.4985 136.8975,90.1975 136.8975,87.3705 L136.8975,76.5715 L136.9925,76.4015 L148.2615,56.9085 C149.1895,55.3025 149.1905,53.3845 148.2635,51.7785" id="Fill-8" fill="#00FF87"></path>
            <g id="Group-12" transform="translate(166.000000, 95.119000)">
                <mask id="mask-4" fill="white">
                    <use xlink:href="#path-3"></use>
                </mask>
                <g id="Clip-11"></g>
                <path d="M54.4247,3.4833 C53.3907,1.8623 51.6277,0.8953 49.7097,0.8953 C47.5677,0.8953 45.5787,2.1703 44.6467,4.1443 C41.5527,10.6863 34.9067,14.9143 27.7167,14.9143 C20.5907,14.9143 13.9897,10.6873 10.9017,4.1483 C9.9687,2.1723 7.9817,0.8953 5.8257,0.8953 C3.9097,0.8953 2.1487,1.8603 1.1137,3.4783 C0.0937,5.0733 -0.0443,7.0473 0.7447,8.7573 C5.5827,19.2323 16.1777,26.0003 27.7377,26.0003 C39.3077,26.0003 49.9247,19.2353 54.7857,8.7673 C55.5797,7.0563 55.4447,5.0813 54.4247,3.4833" id="Fill-10" fill="#00FF87" mask="url(#mask-4)"></path>
            </g>
            <path d="M172.7215,58.594 C167.3945,58.594 163.0455,62.942 163.0455,68.323 C163.0455,73.65 167.3945,78.052 172.7215,78.052 C178.1025,78.052 182.4505,73.65 182.4505,68.323 C182.4505,62.942 178.1025,58.594 172.7215,58.594 M172.7215,47.94 C183.9725,47.94 193.1045,57.126 193.1045,68.378 C193.1045,79.629 183.9725,88.706 172.7215,88.706 C161.4695,88.706 152.3925,79.629 152.3925,68.378 C152.3925,57.126 161.4695,47.94 172.7215,47.94" id="Fill-13" fill="#00FF87"></path>
            <g id="Group-17" transform="translate(199.000000, 47.119000)">
                <mask id="mask-6" fill="white">
                    <use xlink:href="#path-5"></use>
                </mask>
                <g id="Clip-16"></g>
                <path d="M27.3797,0.8207 L27.3787,0.8207 C24.4067,0.8207 21.9977,3.2307 21.9977,6.2017 L21.9977,25.1247 C21.9977,27.9687 19.8587,30.4677 17.0217,30.6507 C13.9287,30.8497 11.3447,28.3857 11.3447,25.3347 L11.3447,6.2017 C11.3447,3.2307 8.9357,0.8207 5.9637,0.8207 C2.9917,0.8207 0.5827,3.2307 0.5827,6.2017 L0.5827,25.1207 C0.5827,34.1117 7.9397,41.7247 16.9287,41.5857 C25.6707,41.4487 32.7607,34.3807 32.7607,25.4977 L32.7607,6.2017 C32.7607,3.2307 30.3517,0.8207 27.3797,0.8207" id="Fill-15" fill="#00FF87" mask="url(#mask-6)"></path>
            </g>
            <g id="Group-20" transform="translate(0.000000, 20.119000)">
                <mask id="mask-8" fill="white">
                    <use xlink:href="#path-7"></use>
                </mask>
                <g id="Clip-19"></g>
                <path d="M108.5799,16.4047 C107.4589,14.7577 104.3809,13.6197 103.5349,13.2787 C75.3479,1.8757 57.2849,20.6967 49.4969,32.0457 C48.7079,32.9637 47.8949,33.8887 47.2099,34.8367 C46.6309,35.5217 46.1059,36.1517 45.8179,36.5477 C44.0079,38.4007 41.5139,39.4687 38.8769,39.4287 C38.8089,39.4287 38.7519,39.4297 38.6809,39.4297 C36.3459,39.3737 35.0229,36.7287 36.3749,34.8237 C41.3409,27.8217 45.8309,21.6707 49.8469,16.3707 C52.3619,13.0507 54.6329,10.1487 56.6569,7.6627 C59.0859,4.6807 56.9389,0.2177 53.0939,0.2377 L52.9929,0.2377 C49.6229,0.2607 46.0749,0.6637 42.3499,1.4437 C38.6229,2.2247 34.8739,3.3397 31.1029,4.7897 C27.3319,6.2407 23.7959,7.8807 20.4929,9.7097 C17.1899,11.5407 14.2899,13.5147 11.7919,15.6337 C9.2909,17.7547 7.4399,19.8627 6.2349,21.9607 C5.1189,23.9677 4.3609,25.7317 3.9589,27.2487 C3.5579,28.7667 3.4569,30.0717 3.6569,31.1637 C3.8579,32.2577 4.3159,33.1387 5.0299,33.8087 C5.7439,34.4777 6.6589,34.9697 7.7739,35.2807 C8.3539,35.3707 9.0569,35.4377 9.8839,35.4817 C9.8919,35.4827 9.8999,35.4827 9.9079,35.4827 C11.4099,35.5647 12.8289,34.7537 13.5189,33.4177 C14.4919,31.5337 15.7239,29.6447 17.2139,27.7507 C19.2659,25.1397 21.4969,22.7527 23.9069,20.5877 C26.3159,18.4247 28.8049,16.6167 31.3709,15.1657 L31.4479,15.1217 C33.3349,14.0597 35.3069,16.3677 33.9599,18.0627 C32.9279,19.3627 31.8869,20.7057 30.8359,22.0937 C28.2689,25.4857 25.7369,28.9777 23.2379,32.5697 C20.7379,36.1627 18.3289,39.7557 16.0089,43.3467 C13.6869,46.9397 11.5789,50.3327 9.6829,53.5227 C7.7849,56.7137 6.1679,59.6037 4.8289,62.1907 C3.4909,64.7797 2.5539,66.8547 2.0179,68.4167 C0.9019,71.1837 0.2549,73.4367 0.0759,75.1777 C-0.1021,76.9177 0.0309,78.3677 0.4779,79.5277 C0.9239,80.6877 1.6269,81.6587 2.5869,82.4407 C3.5469,83.2207 4.6509,84.0347 5.8999,84.8837 C7.1509,85.5597 8.6969,84.9047 9.0939,83.5387 C9.7939,81.1257 10.6469,78.7057 11.6569,76.2817 C13.0399,72.9577 14.5799,69.6667 16.2759,66.4077 C17.9719,63.1517 19.8469,59.9267 21.8989,56.7357 C23.0329,54.9727 24.1809,53.2397 25.3429,51.5387 C27.2249,48.7817 30.3889,47.1847 33.7259,47.2617 L33.7809,47.2627 L33.8369,47.2647 C36.3469,47.3267 37.8449,50.0817 36.5259,52.2177 C36.3479,52.5067 36.1699,52.7957 35.9899,53.0877 C34.8079,55.0067 33.6469,56.9477 32.5089,58.9107 C31.3709,60.8757 30.2889,62.8157 29.2629,64.7347 C28.2349,66.6547 27.3439,68.5287 26.5849,70.3577 C26.2269,71.4287 26.0379,72.6227 26.0159,73.9387 C25.9929,75.2547 26.2269,76.5157 26.7189,77.7207 C27.2089,78.9257 28.0009,80.0637 29.0949,81.1347 C29.7039,81.7307 30.4339,82.2517 31.2849,82.6957 C32.4349,83.2967 33.8599,82.7697 34.3419,81.5637 C35.8429,77.8057 37.6299,73.8807 39.7049,69.7877 C42.1589,64.9477 44.8489,60.0817 47.7709,55.1967 C50.6929,50.3087 53.7179,45.5347 56.8419,40.8707 C57.3829,40.0637 57.9159,39.2777 58.4499,38.4877 C62.8529,32.9877 68.2419,27.9987 74.9159,24.5527 C78.9169,22.4877 91.0339,19.7697 98.8059,23.7597 C100.8169,24.8347 103.1379,25.2327 105.3789,24.8097 C105.4949,24.7887 105.6119,24.7637 105.7299,24.7377 C107.2169,24.4077 108.3519,23.4067 109.0139,22.1267 C109.9939,20.2307 109.7279,18.0457 108.5799,16.4047" id="Fill-18" fill="#000000" mask="url(#mask-8)"></path>
            </g>
        </g>
    </g>
</svg>