<?xml version="1.0" encoding="UTF-8"?>
<svg width="304px" height="159px" viewBox="0 0 304 159" version="1.1" xmlns="http://www.w3.org/2000/svg" xmlns:xlink="http://www.w3.org/1999/xlink">
    <!-- Generator: Sketch 51.2 (57519) - http://www.bohemiancoding.com/sketch -->
    <title>hey-you__000</title>
    <desc>Created with Sketch.</desc>
    <defs>
        <polygon id="path-1" points="0.282445977 0.375 25.0746905 0.375 25.0746905 51.337725 0.282445977 51.337725"></polygon>
    </defs>
    <g id="Page-1" stroke="none" stroke-width="1" fill="none" fill-rule="evenodd">
        <g id="hey-you__000">
            <path d="M226.960994,76 C219.822975,76 214,81.8101956 214,89.0013893 C214,96.1203377 219.822975,102 226.960994,102 C234.171453,102 240,96.1203377 240,89.0013893 C240,81.8101956 234.171453,76 226.960994,76" id="Fill-1" fill="#000000"></path>
            <path d="M84.9602436,91.4866416 C87.8248677,84.0729135 97.1198907,75.7046988 101.96247,74.6350156 C104.996243,73.9685206 102.860052,78.3405082 102.860052,78.3405082 C100.254608,83.5216152 93.5513876,88.7904911 93.5513876,88.7904911 C90.3812036,91.3604738 88.18772,92.5453538 86.7690491,93.0829382 C85.6723073,93.4998404 84.5291859,92.5124405 84.9602436,91.4866416 M121.796581,106.344268 C119.193865,109.737084 117.068587,107.285041 117.12588,105.968508 C117.174987,104.907053 118.503627,103.080363 119.76679,100.62832 L136.965448,72.9728923 C137.071848,72.791869 137.369223,72.1720012 137.363767,72.1390879 C138.588735,69.1220324 137.453798,65.5811064 134.570076,63.8970409 C131.413533,62.0593799 127.375777,63.1345488 125.542418,66.3051997 L121.44737,73.4227078 C119.584,76.1682283 116.318328,80.9735748 114.002075,84.561128 C113.546464,85.0328857 113.088124,85.5869268 112.629784,86.225994 C111.2002,88.0773689 109.606924,90.0658828 107.85541,92.1887927 C106.098441,94.3117026 104.341472,96.3742714 102.589959,98.3792419 C100.832989,100.38147 99.1114865,102.205417 97.4145378,103.848341 C95.7203173,105.494007 94.2170717,106.706315 92.9102574,107.482521 C91.600715,108.43975 90.3211829,109.128188 89.0743894,109.54509 C87.8248677,109.964735 86.8127005,110.06896 86.0406161,109.857766 C85.2658035,109.649315 84.761084,109.037676 84.5237294,108.020105 C84.4937191,107.899423 84.4718934,107.773255 84.4527959,107.638859 C84.1636053,105.419952 85.3476499,103.255901 87.3092353,102.194446 C89.5136318,101.006823 91.7944182,99.5092663 94.157051,97.7045186 C97.3708864,95.2552181 100.40466,92.5480966 103.258371,89.5858967 C106.11481,86.6264396 108.627495,83.623098 110.799153,80.5731292 C112.970811,77.5231604 114.411307,74.7584405 115.126099,72.2762267 C115.838163,69.794013 115.64446,67.7616147 114.54499,66.1762892 C113.442792,64.5937065 111.110169,63.7983009 107.541666,63.7983009 C105.52006,63.7983009 103.258371,64.3989693 100.762056,65.5948203 C74.5357401,76.541246 69.1502469,105.930109 69.3548629,109.635601 C68.9701848,113.360294 71.2209608,127.929929 90.411214,118.692253 C93.2676534,117.068529 96.0886261,114.97579 98.874132,112.416778 C98.9505219,112.345466 99.1442251,112.1617 99.3924925,111.920335 C100.118197,111.220927 101.318611,111.742055 101.307698,112.751397 C101.299514,113.54406 101.310427,114.240725 101.340437,114.479347 C101.727843,117.468975 103.318392,119.501373 106.11481,120.576542 C107.364332,121.114126 108.684787,121.308863 110.084361,121.160753 C110.651829,121.097669 111.563053,120.828877 112.471548,120.513458 C113.388227,120.195296 114.190322,121.212866 113.671961,122.035699 L113.65832,122.038442 C111.76494,125.252978 107.675348,128.755505 105.258151,130.782417 C92.1954655,141.734329 76.8274394,142.151231 62.4006469,133.193319 L61.8822864,132.897099 C58.0900697,130.700134 53.2474909,132.008439 51.0594638,135.8209 C48.8741648,139.633361 50.1782508,144.504534 53.9704675,146.701499 C54.207822,146.838638 54.4424484,146.973034 54.6879876,147.110173 C73.7336454,157.765864 97.1417164,155.941917 114.326733,142.469393 C122.625958,135.966267 126.44,129.298575 132.002827,117.874906 L131.841863,117.913305 L154.884353,81.0613437 C154.990754,80.8885487 157.058739,77.6081866 156.998719,74.5115906 C156.720441,71.0666618 153.716678,69.0370063 151.787831,68.3787397 C149.927189,67.7890425 148.102015,68.7106158 146.511466,70.1615452 C143.540442,72.865924 122.964256,105.216987 121.796581,106.344268" id="Fill-3" fill="#000000"></path>
            <g id="Group-7" transform="translate(214.000000, 0.000000)">
                <mask id="mask-2" fill="white">
                    <use xlink:href="#path-1"></use>
                </mask>
                <g id="Clip-6"></g>
                <path d="M12.63816,0.374725 C7.72686,0.374725 3.45546,3.289725 1.41426,7.535725 C0.26676,9.922725 0.02106,12.653475 0.54486,15.257725 C2.18376,23.405975 5.19426,38.027725 6.34716,45.581975 C6.83856,48.780225 9.40896,51.337725 12.65706,51.337725 C15.99156,51.337725 18.72396,48.711475 19.01556,45.419725 C19.05066,45.048475 23.13846,23.887225 24.82056,15.210975 C25.27686,12.859725 25.14186,10.398475 24.22656,8.190225 C22.32036,3.592225 17.85456,0.374725 12.63816,0.374725" id="Fill-5" fill="#000000" mask="url(#mask-2)"></path>
            </g>
            <path d="M194.090722,67.3781853 C192.879263,65.2626931 190.705202,64 188.276816,64 L188.131878,64 C185.747247,64 183.523962,65.2902027 182.326177,67.3671815 L174.335475,81.2265444 C173.944417,81.9032819 173.233404,82.2746622 172.462227,82.3076737 C171.682846,82.3076737 170.982771,81.9005309 170.591714,81.2182915 L162.669378,67.3809363 C161.474328,65.2957046 159.245573,64 156.852738,64 L156.724209,64 C154.295823,64 152.121761,65.2626931 150.910303,67.3781853 C149.69611,69.4936776 149.69611,72.0190637 150.913038,74.134556 L165.781431,100.012886 L165.786901,100.268726 L165.786901,114.24638 C165.786901,117.971187 168.800506,121 172.500512,121 C176.203254,121 179.214124,117.971187 179.214124,114.24638 L179.214124,100.026641 L179.337184,99.8038127 L194.087987,74.134556 C195.30218,72.0190637 195.304914,69.4936776 194.090722,67.3781853" id="Fill-8" fill="#FFFFFF"></path>
            <path d="M288.857846,129.40243 C287.505653,127.271449 285.200097,126 282.692394,126 C279.889668,126 277.291819,127.677873 276.070748,130.270201 C272.025097,138.871016 263.335553,144.429142 253.933034,144.429142 C244.615199,144.429142 235.98302,138.873762 231.945564,130.275693 C230.724494,127.677873 228.126645,126 225.304797,126 C222.802557,126 220.499733,127.268703 219.144808,129.396938 C217.811738,131.492219 217.631445,134.087293 218.664029,136.333611 C224.987919,150.105351 238.843112,159 253.960351,159 C269.091249,159 282.973759,150.110843 289.33043,136.347341 C290.368477,134.098277 290.190916,131.503204 288.857846,129.40243" id="Fill-10" fill="#FFFFFF"></path>
            <path d="M226.461925,76.1122214 C219.526888,76.1122214 213.867354,81.8733282 213.867354,88.9986164 C213.867354,96.0547271 219.526888,101.885012 226.461925,101.885012 C233.467672,101.885012 239.129926,96.0547271 239.129926,88.9986164 C239.129926,81.8733282 233.467672,76.1122214 226.461925,76.1122214 M226.461925,62 C241.112531,62 253,74.1669485 253,89.0733282 C253,103.974174 241.112531,116 226.461925,116 C211.814039,116 200,103.974174 200,89.0733282 C200,74.1669485 211.814039,62 226.461925,62" id="Fill-12" fill="#FFFFFF"></path>
            <path d="M296.978641,62 L296.975914,62 C293.098487,62 289.954554,65.1904837 289.954554,69.1280885 L289.954554,94.192617 C289.954554,97.9614278 287.159644,101.270897 283.456729,101.511636 C279.421152,101.77728 276.048172,98.5120837 276.048172,94.4720957 L276.048172,69.1280885 C276.048172,65.1904837 272.904239,62 269.024086,62 C265.143933,62 262,65.1904837 262,69.1280885 L262,94.1870828 C262,106.096746 271.600857,116.182881 283.336753,115.997484 C294.748166,115.817622 304,106.450937 304,94.6879306 L304,69.1280885 C304,65.1904837 300.856067,62 296.978641,62" id="Fill-14" fill="#FFFFFF"></path>
            <path d="M142.636684,47.3238406 C141.165736,45.1498583 137.12063,43.6509403 136.011931,43.1990606 C98.9802775,28.1602835 75.2530153,52.9861137 65.0222458,67.9532513 C63.9848984,69.1656115 62.9173638,70.3862378 62.0172317,71.6344177 C61.2570591,72.5381771 60.5682386,73.3702971 60.1895245,73.8938162 C57.8102119,76.3350688 54.5335116,77.7458152 51.0729428,77.6907079 C50.9823807,77.6907079 50.9055402,77.6934633 50.8122338,77.6934633 C47.746845,77.6190685 46.0096998,74.1307776 47.7852653,71.6178855 C54.3057342,62.3819052 60.2059903,54.2701134 65.4805447,47.2797548 C68.7874324,42.9014813 71.7704921,39.0715252 74.4297238,35.792642 C77.6186063,31.8607375 74.7974607,25.9752798 69.7451949,26.0000781 L69.6162126,26.0000781 C65.1869041,26.0303871 60.527074,26.5621724 55.6339779,27.5899232 C50.7381376,28.6204293 45.8121099,30.0917937 40.8586391,32.0040164 C35.902424,33.9189944 31.2590598,36.0791999 26.9203133,38.4928988 C22.5815669,40.9065977 18.7697271,43.5131721 15.4902825,46.3071113 C12.2053492,49.1038058 9.77389488,51.8839681 8.19043082,54.653109 C6.72497187,57.3010139 5.72604481,59.6265411 5.19913822,61.6269354 C4.67497594,63.6273297 4.54050499,65.3494323 4.80395828,66.7904877 C5.06741158,68.2342985 5.6684144,69.3970621 6.60971106,70.2787786 C7.5427748,71.1632505 8.74752476,71.810761 10.2129837,72.2213103 C10.9731562,72.3397909 11.8952427,72.4279626 12.9847319,72.4858252 C12.9847319,72.4858252 13.0066863,72.4858252 13.0176635,72.4885806 C14.9880746,72.5960398 16.8514578,71.5269585 17.7598228,69.7635255 C19.0359247,67.2809425 20.6550647,64.787338 22.6117543,62.2882228 C25.3066619,58.8467731 28.2375798,55.697392 31.4072522,52.8400794 C34.571436,49.9882776 37.8371592,47.6048877 41.2099102,45.6899097 L41.3114494,45.6320471 C43.789557,44.2295667 46.380181,47.274244 44.6101042,49.5115997 C43.2544175,51.2254361 41.8877535,52.9971352 40.507368,54.8294523 C37.1373613,59.3014082 33.8085192,63.9083769 30.5263303,68.6448477 C27.241397,73.3840739 24.0772132,78.1233001 21.0282902,82.8597709 C17.9793672,87.5989971 15.207619,92.0737083 12.7185343,96.2811493 C10.2267052,100.48859 8.10261305,104.302014 6.34351346,107.713155 C4.58441387,111.129806 3.35496517,113.865883 2.64967875,115.926895 C1.18421981,119.577752 0.333485223,122.548035 0.100219287,124.843253 C-0.133046649,127.138471 0.0398445739,129.050694 0.629870177,130.582676 C1.21440717,132.111904 2.13649369,133.393148 3.39887406,134.423654 C4.65851011,135.451405 6.11024753,136.528752 7.75134199,137.644675 C9.39243646,138.537413 11.4232223,137.674984 11.9446402,135.872975 C12.8639825,132.687775 13.9864033,129.497063 15.3119026,126.300841 C17.1313769,121.917056 19.1511855,117.574603 21.3795613,113.27899 C23.607937,108.980622 26.0695787,104.72634 28.7672307,100.518899 C30.2573884,98.1933719 31.7667562,95.9091751 33.2898455,93.6635534 C35.7652088,90.0292282 39.9200867,87.9213747 44.302742,88.0233232 L44.3768383,88.0260785 L44.4509345,88.0260785 C47.746845,88.1087394 49.7145118,91.7430646 47.9828552,94.5618021 C47.7495893,94.9420423 47.513579,95.3222826 47.2775688,95.7080335 C45.7270364,98.2402131 44.2012028,100.799946 42.7055565,103.387233 C41.2099102,105.980031 39.7883601,108.539764 38.4409063,111.069188 C37.0907082,113.601368 35.9188899,116.075685 34.9227071,118.486628 C34.4534309,119.90013 34.2036992,121.473443 34.1762561,123.209322 C34.1460688,124.945202 34.4534309,126.609441 35.0983426,128.199287 C35.7432543,129.786376 36.783346,131.28805 38.2213619,132.701551 C39.0199547,133.48683 39.9804615,134.175671 41.0973936,134.759808 C42.6095058,135.553353 44.4811219,134.859001 45.1150564,133.266401 C47.0854674,128.309501 49.4318483,123.134927 52.1569433,117.734414 C55.3815019,111.350235 58.9161669,104.932992 62.7554497,98.4881959 C66.5947326,92.0433993 70.5657422,85.7446371 74.6684783,79.5946645 C75.3819977,78.5283386 76.0817955,77.4923217 76.7843376,76.4507941 C82.5665885,69.1959205 89.6468957,62.6161111 98.4149506,58.0725158 C103.670295,55.3474607 119.590009,51.7627321 129.79608,57.0254775 C132.438846,58.4417346 135.490513,58.9680091 138.432408,58.4086702 C138.586089,58.3811166 138.73977,58.3508076 138.896196,58.3149878 C140.847397,57.8796403 142.340299,56.5598209 143.207499,54.8707828 C144.497322,52.3716676 144.146051,49.4895567 142.636684,47.3238406" id="Fill-16" fill="#000000"></path>
        </g>
    </g>
</svg>