<?xml version="1.0" encoding="UTF-8"?>
<svg width="315px" height="163px" viewBox="0 0 315 163" version="1.1" xmlns="http://www.w3.org/2000/svg" xmlns:xlink="http://www.w3.org/1999/xlink">
    <!-- Generator: Sketch 51.2 (57519) - http://www.bohemiancoding.com/sketch -->
    <title>Group 2</title>
    <desc>Created with Sketch.</desc>
    <defs>
        <polygon id="path-1" points="0.21955857 0.18935 26.1150667 0.18935 26.1150667 52.451495 0.21955857 52.451495"></polygon>
        <polygon id="path-3" points="0.322055603 0.205211538 75.0473784 0.205211538 75.0473784 34 0.322055603 34"></polygon>
        <polygon id="path-5" points="0.794181818 0.113807143 44.6727273 0.113807143 44.6727273 55.4402789 0.794181818 55.4402789"></polygon>
        <polygon id="path-7" points="0 0.323291426 148.480105 0.323291426 148.480105 115.846839 0 115.846839"></polygon>
    </defs>
    <g id="Page-1" stroke="none" stroke-width="1" fill="none" fill-rule="evenodd">
        <g id="avatar_002" transform="translate(-22.000000, -98.000000)">
            <g id="Group-2" transform="translate(22.000000, 98.000000)">
                <path d="M233.963989,79 C226.825793,79 221,85.0331492 221,92.5 C221,99.890884 226.825793,106 233.963989,106 C241.172874,106 247,99.890884 247,92.5 C247,85.0331492 241.172874,79 233.963989,79" id="Fill-1" fill="#000000"></path>
                <path d="M88.2670046,94.4257285 C91.2353554,86.7683607 100.881479,78.1222892 105.905051,77.0196608 C109.049525,76.3293313 106.833084,80.8456322 106.833084,80.8456322 C104.132982,86.197381 97.1801858,91.6399982 97.1801858,91.6399982 C93.8893943,94.2955289 91.6133426,95.5188632 90.1433925,96.0735681 C89.0026571,96.5048544 87.8172134,95.4836008 88.2670046,94.4257285 M126.480287,109.770302 C123.778831,113.276199 121.573228,110.744087 121.635549,109.385128 C121.684321,108.287924 123.0635,106.402741 124.37223,103.866561 L142.213495,75.2999402 C142.323233,75.1127782 142.634836,74.4726299 142.628062,74.44008 C143.898857,71.3220692 142.721542,67.6669849 139.73016,65.9269206 C136.456981,64.0281755 132.266607,65.1389414 130.365833,68.4142767 L126.115848,75.7651328 C124.183914,78.6010442 120.798287,83.567619 118.39082,87.2715282 C117.917998,87.7584207 117.44382,88.3307567 116.968288,88.9898925 C115.4875,90.9035564 113.834652,92.9582698 112.015166,95.1499642 C110.195679,97.3430148 108.374838,99.4750343 106.553996,101.54331 C104.733155,103.612942 102.944829,105.498125 101.186308,107.196146 C99.4277869,108.895523 97.8684205,110.145982 96.5136278,110.947524 C95.1547707,111.937583 93.8270739,112.648257 92.531892,113.078187 C91.2367102,113.512186 90.1867459,113.620685 89.3860634,113.403686 C88.5826713,113.186687 88.0583665,112.554676 87.8117943,111.503585 C87.7833436,111.380166 87.7589574,111.249967 87.7413451,111.110273 C87.4392263,108.81686 88.6666685,106.58041 90.7029219,105.487275 C92.9871024,104.258516 95.35528,102.712395 97.8074548,100.848912 C101.140245,98.3167998 104.287428,95.5215757 107.249005,92.4632398 C110.210582,89.404904 112.817203,86.3018119 115.070223,83.1512513 C117.320534,80.0006906 118.818935,77.1444355 119.558652,74.5811296 C120.299723,72.0191799 120.097859,69.9183541 118.957124,68.2813645 C117.815033,66.644375 115.392664,65.8252021 111.69137,65.8252021 C109.592797,65.8252021 107.249005,66.4436505 104.657287,67.6778348 C77.4516945,78.9862183 71.8645294,109.34444 72.0772319,113.171768 C71.677568,117.020795 74.0132306,132.069707 93.9205546,122.529869 C96.884841,120.849479 99.8111932,118.688979 102.699611,116.044298 C102.779544,115.972417 102.978699,115.781186 103.238819,115.532993 C103.988019,114.810114 105.237138,115.3499 105.224945,116.391497 C105.215461,117.212026 105.227654,117.929481 105.258815,118.174961 C105.661188,121.264491 107.311326,123.36396 110.209227,124.476082 C111.505764,125.030787 112.878169,125.231512 114.327797,125.0769 C114.917132,125.014512 115.864132,124.733769 116.805713,124.40827 C117.755423,124.081415 118.587265,125.13115 118.052122,125.982872 L118.037219,125.985585 C116.071415,129.30432 111.830914,132.924142 109.323193,135.01683 C95.7725562,146.330639 79.8266461,146.761925 64.8656703,137.505543 L64.3264628,137.200387 C60.3934996,134.931387 55.3672187,136.284921 53.0992957,140.222104 C50.8327276,144.159288 52.1834559,149.190963 56.1177739,151.459963 C56.3616366,151.602369 56.6082088,151.742062 56.8615551,151.883112 C76.6171422,162.889052 100.901801,161.006582 118.729518,147.091493 C127.337871,140.371292 131.296576,133.482916 137.066638,121.683571 L136.898643,121.721546 L160.802606,83.655775 C160.915054,83.4781067 163.05969,80.0888467 162.998725,76.8894612 C162.708799,73.3306703 159.591421,71.2352694 157.590392,70.5544337 C155.661167,69.9468353 153.767167,70.8989203 152.115675,72.3962165 C149.034876,75.1914405 127.690117,108.609355 126.480287,109.770302" id="Fill-3" fill="#000000"></path>
                <g id="Group-7" transform="translate(221.000000, 0.000000)">
                    <mask id="mask-2" fill="white">
                        <use xlink:href="#path-1"></use>
                    </mask>
                    <g id="Clip-6"></g>
                    <path d="M13.12632,0.188945 C7.99362,0.188945 3.53457,3.179195 1.40157,7.531595 C0.20277,9.979145 -0.05373,12.780395 0.49437,15.450695 C2.20482,23.809895 5.35032,38.804345 6.55587,46.550645 C7.06617,49.829795 9.75267,52.451495 13.14522,52.451495 C16.62957,52.451495 19.48212,49.759595 19.78857,46.384595 C19.82232,46.001195 24.09102,24.301295 25.85007,15.402095 C26.32527,12.992345 26.18622,10.467845 25.23042,8.205245 C23.23782,3.489695 18.57357,0.188945 13.12632,0.188945" id="Fill-5" fill="#000000" mask="url(#mask-2)"></path>
                </g>
                <path d="M202.050313,69.4962458 C200.782925,67.3071734 198.513384,66 195.978608,66 L195.82685,66 C193.335824,66 191.011595,67.3344346 189.761981,69.4839783 L181.415267,83.8301721 C181.006476,84.5321474 180.265457,84.9151669 179.46018,84.9506064 C178.645333,84.9492434 177.915252,84.5280582 177.507829,83.8233568 L169.232209,69.500335 C167.985328,67.3412499 165.656999,66 163.157769,66 L163.022417,66 C160.487641,66 158.215366,67.3071734 156.950713,69.4962458 C155.681957,71.6853182 155.683325,74.299665 156.953447,76.4887374 L172.484761,103.275569 L172.488863,103.540002 L172.488863,118.010234 C172.488863,121.863602 175.634774,125 179.499829,125 C183.366251,125 186.512163,121.863602 186.512163,118.010234 L186.512163,103.290563 L186.640679,103.058843 L202.047578,76.4887374 C203.316334,74.299665 203.317701,71.6853182 202.050313,69.4962458" id="Fill-8" fill="#EBFF00"></path>
                <g id="Group-12" transform="translate(225.000000, 129.000000)">
                    <mask id="mask-4" fill="white">
                        <use xlink:href="#path-3"></use>
                    </mask>
                    <g id="Clip-11"></g>
                    <path d="M73.86155,3.68905769 C72.4582643,1.50694231 70.0656214,0.205211538 67.4626214,0.205211538 C64.5556214,0.205211538 61.8576214,1.92155769 60.5914071,4.57886538 C56.3924071,13.3854038 47.3728357,19.0769423 37.6149786,19.0769423 C27.9439786,19.0769423 18.9854786,13.38675 14.7959786,4.58425 C13.5284071,1.92425 10.8317643,0.205211538 7.90576429,0.205211538 C5.30547857,0.205211538 2.91690714,1.50425 1.51090714,3.68232692 C0.126621429,5.82944231 -0.0606642857,8.48675 1.01147857,10.7886731 C7.57597857,24.8896346 21.9562643,34.0004038 37.6434786,34.0004038 C53.3456214,34.0004038 67.7544071,24.8936731 74.3514786,10.8021346 C75.42905,8.49886538 75.2471929,5.84021154 73.86155,3.68905769" id="Fill-10" fill="#EBFF00" mask="url(#mask-4)"></path>
                </g>
                <path d="M234.463524,78.3739881 C227.266997,78.3739881 221.391703,84.2401511 221.391703,91.5 C221.391703,98.6869941 227.266997,104.626012 234.463524,104.626012 C241.733003,104.626012 247.606946,98.6869941 247.606946,91.5 C247.606946,84.2401511 241.733003,78.3739881 234.463524,78.3739881 M234.463524,64 C249.664448,64 262,76.3934161 262,91.574204 C262,106.753643 249.664448,119 234.463524,119 C219.262601,119 207,106.753643 207,91.574204 C207,76.3934161 219.262601,64 234.463524,64" id="Fill-13" fill="#EBFF00"></path>
                <g id="Group-17" transform="translate(270.000000, 64.000000)">
                    <mask id="mask-6" fill="white">
                        <use xlink:href="#path-5"></use>
                    </mask>
                    <g id="Clip-16"></g>
                    <path d="M37.3355455,0.113807143 C33.2814545,0.113807143 29.9978182,3.38452143 29.9978182,7.41659286 L29.9978182,33.0978071 C29.9978182,36.9575214 27.081,40.3490214 23.211,40.5973786 C18.9932727,40.86745 15.4696364,37.52345 15.4696364,33.3828071 L15.4696364,7.41659286 C15.4696364,3.38452143 12.1846364,0.113807143 8.13190909,0.113807143 C4.07918182,0.113807143 0.794181818,3.38452143 0.794181818,7.41659286 L0.794181818,33.0923786 C0.794181818,45.29445 10.8264545,55.6263786 23.0841818,55.4377357 C35.0050909,55.2518071 44.6732727,45.6595214 44.6732727,33.6040214 L44.6732727,7.41659286 C44.6732727,3.38452143 41.3882727,0.113807143 37.3355455,0.113807143" id="Fill-15" fill="#EBFF00" mask="url(#mask-6)"></path>
                </g>
                <g id="Group-20" transform="translate(0.000000, 26.000000)">
                    <mask id="mask-8" fill="white">
                        <use xlink:href="#path-7"></use>
                    </mask>
                    <g id="Clip-19"></g>
                    <path d="M147.076004,22.3180221 C145.558913,20.077336 141.388267,18.5291267 140.242322,18.0652081 C102.061749,2.55182442 77.5959491,28.1571384 67.0453945,43.597057 C65.9766582,44.845964 64.8754127,46.1043942 63.9489036,47.3941151 C63.1632673,48.3260337 62.4521309,49.1831267 62.0620218,49.7218709 C59.6102945,52.2428128 56.2334127,53.6957895 52.6614764,53.6413709 C52.5680127,53.6413709 52.4908036,53.6427314 52.3946309,53.6427314 C49.2317673,53.5665453 47.4410582,49.9681151 49.2710491,47.3764291 C55.9977218,37.8504523 62.0796309,29.4822314 67.5194855,22.2717663 C70.9261673,17.7550221 74.00234,13.8069523 76.7452945,10.424836 C80.0341309,6.36792907 77.1259218,0.296173256 71.9176945,0.323382558 L71.7808855,0.323382558 C67.2160673,0.354673256 62.41014,0.902940698 57.3644582,1.96410349 C52.3160673,3.02662674 47.2378764,4.54354535 42.1298855,6.51621977 C37.0218945,8.49025465 32.2322218,10.7214174 27.7595127,13.2097081 C23.2840945,15.7007198 19.3572673,18.3862779 15.9722582,21.2691035 C12.5858945,24.15465 10.0772764,27.0225105 8.44504909,29.8767663 C6.93473091,32.6072198 5.90663091,35.0070802 5.36345818,37.0709058 C4.81893091,39.1360919 4.68212182,40.9114988 4.95438545,42.3971267 C5.22664909,43.8854756 5.84567636,45.0840453 6.81417636,45.995557 C7.77996727,46.9057081 9.01937636,47.575057 10.5310491,47.9981616 C11.3153309,48.1206035 12.2689309,48.2117547 13.3877855,48.2716151 C13.3986218,48.2729756 13.4094582,48.2729756 13.4202945,48.2729756 C15.4548218,48.3845337 17.3782764,47.2811965 18.3115582,45.4636151 C19.6295309,42.9004988 21.2983309,40.3305802 23.3166036,37.7538593 C26.0974855,34.2016849 29.1194764,30.9542547 32.3839309,28.0088477 C35.6470309,25.0661616 39.01714,22.6064407 42.4942582,20.6324058 L42.5972036,20.5725453 C45.1545855,19.1277314 47.8243945,22.2676849 45.9998218,24.5736733 C44.6019309,26.3422779 43.1918491,28.1693826 41.7682218,30.0577081 C38.2911036,34.6724058 34.8613945,39.42315 31.4763855,44.3099407 C28.0900218,49.1980919 24.8269218,54.086243 21.6843764,58.9716733 C18.5391218,63.8598244 15.68374,68.4758826 13.1155218,72.8157663 C10.5459491,77.1570105 8.35564909,81.0887547 6.54191273,84.6082779 C4.72817636,88.1305221 3.45896727,90.9534872 2.73293091,93.0785337 C1.22125818,96.8429407 0.344867273,99.9080686 0.103758182,102.276638 C-0.138705455,104.643848 0.0428036364,106.616522 0.648285455,108.194662 C1.25105818,109.772801 2.20465818,111.093813 3.50502182,112.157697 C4.80403091,113.218859 6.29944909,114.326278 7.99127636,115.481313 C9.68716727,116.400987 11.77994,115.509883 12.3176945,113.651487 C13.2658764,110.368685 14.4226582,107.076359 15.7907491,103.778592 C17.6640855,99.2564058 19.7487309,94.7791151 22.04604,90.3453593 C24.3447036,85.9156849 26.8831218,81.5281849 29.6626491,77.1869407 C31.1987036,74.7884407 32.7550764,72.4307547 34.3277036,70.1166035 C36.8769582,66.3658012 41.1640945,64.1931384 45.6815036,64.2978942 L45.7573582,64.2992547 L45.8332127,64.3019756 C49.2331218,64.3863244 51.2622309,68.1344058 49.4755855,71.0403593 C49.2358309,71.4335337 48.9933673,71.8267081 48.7495491,72.223964 C47.1484764,74.8346965 45.5758491,77.4753593 44.0357309,80.1459523 C42.4942582,82.8192663 41.0272855,85.4585686 39.6375218,88.0693012 C38.2464036,90.6813942 37.0381491,93.2309058 36.0114036,95.7191965 C35.5251218,97.1762547 35.2691127,98.80065 35.2393127,100.591022 C35.2081582,102.381394 35.5251218,104.096941 36.1929127,105.736301 C36.8552855,107.375662 37.92944,108.923871 39.4113127,110.380929 C40.2348764,111.191766 41.2236945,111.900569 42.3764127,112.504615 C43.9354945,113.322255 45.8657218,112.60529 46.5186127,110.964569 C48.5504309,105.851941 50.9723582,100.512115 53.7816855,94.9437314 C57.10574,88.3590802 60.7494673,81.739057 64.7088036,75.0931849 C68.6667855,68.4432314 72.7629309,61.9483709 76.9945309,55.6031616 C77.72734,54.5052663 78.4493127,53.4359407 79.1739945,52.3611733 C85.1367036,44.8786151 92.4363491,38.0912547 101.476585,33.4030919 C106.896122,30.5937314 123.309149,26.8959872 133.836676,32.324243 C136.560667,33.786743 139.705922,34.3282081 142.741458,33.7527314 C142.898585,33.7241616 143.055713,33.69015 143.215549,33.6547779 C145.229758,33.2058244 146.767167,31.8439988 147.665231,30.1026035 C148.991331,27.5231616 148.631022,24.5505453 147.076004,22.3180221" id="Fill-18" fill="#000000" mask="url(#mask-8)"></path>
                </g>
            </g>
        </g>
    </g>
</svg>